<?xml version="1.0" encoding="utf-8"?>
<!-- Generator: Adobe Illustrator 19.0.0, SVG Export Plug-In . SVG Version: 6.00 Build 0)  -->
<svg version="1.1" id="Слой_1" xmlns="http://www.w3.org/2000/svg" xmlns:xlink="http://www.w3.org/1999/xlink" x="0px" y="0px"
	 viewBox="0 0 11.2 25.3" style="enable-background:new 0 0 11.2 25.3;" xml:space="preserve">
<style type="text/css">
	.st0{fill:#1D1D1B;}
</style>
<g id="Ключик">
	<g>
		<path id="XMLID_15_" class="st0" d="M5.6,11.2C2.5,11.2,0,8.7,0,5.6C0,2.5,2.5,0,5.6,0c3.1,0,5.6,2.5,5.6,5.6
			C11.2,8.7,8.7,11.2,5.6,11.2z M5.6,2.5c-1.7,0-3.1,1.4-3.1,3.1c0,1.7,1.4,3.1,3.1,3.1c1.7,0,3.1-1.4,3.1-3.1
			C8.7,3.9,7.3,2.5,5.6,2.5z"/>
	</g>
	<g>
		<g>
			<rect x="3.9" y="10.3" class="st0" width="3" height="15"/>
		</g>
	</g>
	<g>
		<rect x="4.9" y="18.3" class="st0" width="5" height="5"/>
	</g>
</g>
</svg>
