<?xml version="1.0" encoding="utf-8"?>
<!-- Generator: Adobe Illustrator 19.0.0, SVG Export Plug-In . SVG Version: 6.00 Build 0)  -->
<svg version="1.1" id="Слой_1" xmlns="http://www.w3.org/2000/svg" xmlns:xlink="http://www.w3.org/1999/xlink" x="0px" y="0px"
	 viewBox="0 0 27.8 47.3" style="enable-background:new 0 0 27.8 47.3;" xml:space="preserve">
<style type="text/css">
	.st0{fill:#010101;}
</style>
<g>
	<path class="st0" d="M13.9,47.3C6.2,47.3,0,41.1,0,33.4V13.9C0,6.2,6.2,0,13.9,0c7.7,0,13.9,6.2,13.9,13.9v19.5
		C27.8,41.1,21.6,47.3,13.9,47.3z M13.9,5C9,5,5,9,5,13.9v19.5c0,4.9,4,8.9,8.9,8.9c4.9,0,8.9-4,8.9-8.9V13.9C22.8,9,18.8,5,13.9,5z
		"/>
	<rect x="12" y="8.9" class="st0" width="3" height="9.2"/>
</g>
</svg>
