<?xml version="1.0" encoding="utf-8"?>
<!-- Generator: Adobe Illustrator 19.0.0, SVG Export Plug-In . SVG Version: 6.00 Build 0)  -->
<svg version="1.1" id="Слой_1" xmlns="http://www.w3.org/2000/svg" xmlns:xlink="http://www.w3.org/1999/xlink" x="0px" y="0px"
	 viewBox="0 0 16 27.3" style="enable-background:new 0 0 16 27.3;" xml:space="preserve">
<style type="text/css">
	.st0{fill:#1D1D1B;}
</style>
<g id="телефон">
	<path id="XMLID_2_" class="st0" d="M13.5,0H2.5C1.1,0,0,1.1,0,2.5v22.3c0,1.4,1.1,2.5,2.5,2.5h10.9c1.4,0,2.5-1.1,2.5-2.5V2.5
		C16,1.1,14.9,0,13.5,0z M7.9,25.7c-0.7,0-1.3-0.6-1.3-1.3S7.2,23,7.9,23c0.7,0,1.3,0.6,1.3,1.3S8.6,25.7,7.9,25.7z M13.9,21.9H2.1
		V2.5h11.8V21.9z"/>
</g>
</svg>
