<?xml version="1.0" encoding="utf-8"?>
<!-- Generator: Adobe Illustrator 19.0.0, SVG Export Plug-In . SVG Version: 6.00 Build 0)  -->
<svg version="1.1" id="Слой_1" xmlns="http://www.w3.org/2000/svg" xmlns:xlink="http://www.w3.org/1999/xlink" x="0px" y="0px"
	 viewBox="0 0 12.5 24.9" style="enable-background:new 0 0 12.5 24.9;" xml:space="preserve">
<style type="text/css">
	.st0{fill:#FEE84B;}
</style>
<path class="st0" d="M2.7,4.8c0-0.2,0-0.5,0.1-1c0-0.5,0.2-1.1,0.6-1.6C3.7,1.6,4.3,1.1,5,0.7C5.8,0.2,6.9,0,8.4,0h4.1v4.5h-3
	c-0.3,0-0.6,0.1-0.8,0.3C8.4,5,8.3,5.3,8.3,5.5v2.8h4.2c0,0.5-0.1,1.1-0.2,1.6l-0.2,1.4c-0.1,0.5-0.1,0.9-0.2,1.3H8.3v12.4H2.7V12.5
	H0V8.2h2.7V4.8z"/>
</svg>
