<?xml version="1.0" encoding="utf-8"?>
<!-- Generator: Adobe Illustrator 19.2.1, SVG Export Plug-In . SVG Version: 6.00 Build 0)  -->
<svg version="1.1" id="Слой_1" xmlns="http://www.w3.org/2000/svg" xmlns:xlink="http://www.w3.org/1999/xlink" x="0px" y="0px"
	 viewBox="0 0 11.7 11.7" style="enable-background:new 0 0 11.7 11.7;" xml:space="preserve">
<style type="text/css">
	.st0{fill:#D65127;}
	.st1{fill:#FFFFFF;}
</style>
<g id="занак_оклику">
	<g>
		<circle class="st0" cx="5.8" cy="5.8" r="5.8"/>
	</g>
	<g>
		<path class="st1" d="M4.9,8.9c0-0.1,0-0.3,0.1-0.4c0-0.1,0.1-0.2,0.2-0.3C5.3,8.1,5.4,8.1,5.5,8c0.1,0,0.2-0.1,0.4-0.1
			C6,7.9,6.2,8,6.3,8c0.1,0,0.2,0.1,0.3,0.2c0.1,0.1,0.2,0.2,0.2,0.3c0,0.1,0.1,0.2,0.1,0.4s0,0.3-0.1,0.4c0,0.1-0.1,0.2-0.2,0.3
			S6.4,9.7,6.3,9.8C6.2,9.8,6,9.8,5.9,9.8c-0.1,0-0.3,0-0.4-0.1c-0.1,0-0.2-0.1-0.3-0.2C5.1,9.5,5,9.4,5,9.3S4.9,9,4.9,8.9z
			 M6.7,1.7v3.1c0,0.3,0,0.7-0.1,1c0,0.3-0.1,0.7-0.2,1H5.3c-0.1-0.3-0.1-0.7-0.2-1c0-0.3-0.1-0.7-0.1-1V1.7H6.7z"/>
	</g>
</g>
</svg>
