<?xml version="1.0" encoding="utf-8"?>
<!-- Generator: Adobe Illustrator 19.0.0, SVG Export Plug-In . SVG Version: 6.00 Build 0)  -->
<svg version="1.1" id="Слой_1" xmlns="http://www.w3.org/2000/svg" xmlns:xlink="http://www.w3.org/1999/xlink" x="0px" y="0px"
	 viewBox="0 0 24.9 14.4" style="enable-background:new 0 0 24.9 14.4;" xml:space="preserve">
<style type="text/css">
	.st0{fill:#FEE84B;}
</style>
<path class="st0" d="M24,3.3c0.8-1.2,1-2,0.8-2.4c-0.2-0.2-0.3-0.3-0.4-0.3c-0.1,0-0.3,0-0.8,0h-3.7c-0.4,0-0.7,0-0.8,0.1
	c-0.1,0.1-0.2,0.3-0.4,0.6l-0.1,0.2c0,0-0.1,0.2-0.4,0.8c-0.2,0.5-0.4,0.8-0.4,0.9c0,0.1-0.2,0.4-0.4,0.8C17.2,4.5,17,4.9,16.9,5
	c-0.1,0.2-0.3,0.4-0.5,0.7c-0.2,0.3-0.4,0.6-0.6,0.7c-0.2,0.1-0.4,0.3-0.6,0.5c-0.2-0.1-0.4-0.3-0.5-0.6c-0.1-0.3-0.2-0.7-0.2-1.2
	c0-0.5,0-0.9,0-1.3c0-0.4,0-0.9,0.1-1.3c0-0.5,0.1-0.8,0.1-0.9c0-1-0.6-1.5-1.8-1.5c0,0-0.3,0-0.8-0.1C11.5,0,11,0,10.7,0
	C9.2,0,8.4,0.3,8.1,1c1,0.3,1.5,1.1,1.5,2.4c0,2,0,3-0.1,3C9.3,7.1,8.9,7.2,8.3,6.6c-1-1.2-2-3-3-5.2c-0.2-0.5-0.6-0.7-1-0.7
	c-0.2,0-0.7,0-1.5,0c-0.8,0-1.5,0-1.9,0C0.5,0.7,0.2,0.8,0,1l0,0c0,0.6,0.2,1.2,0.6,2C1.6,5.1,3,7.5,5,10.3c0.7,0.8,1.3,1.4,1.7,1.8
	c0.4,0.4,0.9,0.8,1.5,1.2c0.6,0.4,1.4,0.7,2.1,0.9c0.8,0.1,1.7,0.2,2.7,0.2c0.3,0,0.6-0.1,0.7-0.1c0.1,0,0.3-0.1,0.5-0.3
	c0.2-0.2,0.3-0.4,0.4-0.7l0.1-1.6c0.1-0.4,0.4-0.6,0.8-0.6c0.4,0,0.7,0.2,0.9,0.5c0.3,0.5,0.8,1.1,1.6,1.8c0.8,0.7,1.5,1.1,2.1,1
	l4-0.2c0.4,0,0.6-0.2,0.7-0.5c0.1-0.3,0-0.7-0.3-1.2c-0.6-0.9-1.7-2-3.2-3.4c-0.7-0.7-0.6-1.6,0.4-2.7C22.5,5.5,23.3,4.5,24,3.3z"/>
</svg>
