<?xml version="1.0" encoding="UTF-8" standalone="no"?>
<svg width="23px" height="28px" viewBox="0 0 23 28" version="1.1" xmlns="http://www.w3.org/2000/svg" xmlns:xlink="http://www.w3.org/1999/xlink" xmlns:sketch="http://www.bohemiancoding.com/sketch/ns">
    <!-- Generator: Sketch 3.5.1 (25234) - http://www.bohemiancoding.com/sketch -->
    <title>Shape</title>
    <desc>Created with Sketch.</desc>
    <defs></defs>
    <g id="Page-1" stroke="none" stroke-width="1" fill="none" fill-rule="evenodd" sketch:type="MSPage">
        <path d="M16.1842105,11 L16.2,9.8 C16.2,9.3 16.6,8.9 17.1,9.2 C17.3,9.3 21.8,13 21.8,13 C22,13.1 22.2,13.3 22.2,13.5 C22.2,13.8 22.1,14 21.9,14.1 C20.9,14.9 17.1,17.8 17,17.9 C16.9,18 16.8,18 16.7,18 C16.3,18 16.1,17.7 16.1,17.4 L16.1052632,17 L7,17 L7,11 L16.1842105,11 Z M17,21.8 L17,25 L3,25 L3,3 L17,3 L17,5.1 C17.8,5.8 18.9,6.6 20,7.5 L20,1.77635684e-15 L0,1.77635684e-15 L0,28 L20,28 L20,19.3 C18.9,20.2 17.8,21.1 17,21.8 Z" id="Shape" fill="#010101" sketch:type="MSShapeGroup"></path>
    </g>
</svg>