<?xml version="1.0" encoding="utf-8"?>
<!-- Generator: Adobe Illustrator 19.0.0, SVG Export Plug-In . SVG Version: 6.00 Build 0)  -->
<svg version="1.1" id="Слой_1" xmlns="http://www.w3.org/2000/svg" xmlns:xlink="http://www.w3.org/1999/xlink" x="0px" y="0px"
	 viewBox="0 0 31 28" style="enable-background:new 0 0 31 28;" xml:space="preserve">
<style type="text/css">
	.st0{fill:#1C1C1C;}
	.st1{fill:#010101;}
</style>
<g id="Значок__x22_Відео_x22_">
	<g>
		<path class="st0" d="M31,28H0V0h31V28z M3,25h25V3H3V25z"/>
	</g>
	<path class="st1" d="M23.6,12.8c0,0-12.6-6.5-12.9-6.7C9.9,5.7,9,6.2,9,7.2v13.2c0,0.1,0,0.1,0,0.2c0.1,0.6,0.5,1.1,1.1,1.1
		c0.2,0,0.4,0,0.6-0.1c0.3-0.1,10.9-5.6,13-6.7c0.4-0.2,0.6-0.6,0.6-1C24.3,13.4,24,13,23.6,12.8z"/>
</g>
</svg>
