<?xml version="1.0" encoding="utf-8"?>
<!-- Generator: Adobe Illustrator 19.2.1, SVG Export Plug-In . SVG Version: 6.00 Build 0)  -->
<svg version="1.1" id="Слой_1" xmlns="http://www.w3.org/2000/svg" xmlns:xlink="http://www.w3.org/1999/xlink" x="0px" y="0px"
	 viewBox="0 0 22.2 28" style="enable-background:new 0 0 22.2 28;" xml:space="preserve">
<style type="text/css">
	.st0{fill:#010101;}
</style>
<g id="Значок__x22_Вийти_x22_">
	<path class="st0" d="M21.8,13c0,0-4.5-3.7-4.7-3.8c-0.5-0.3-0.9,0.1-0.9,0.6c0,0-0.1,7.6-0.1,7.6c0,0.3,0.2,0.6,0.6,0.6
		c0.1,0,0.2,0,0.3-0.1c0.1-0.1,3.9-3,4.9-3.8c0.2-0.1,0.3-0.3,0.3-0.6C22.2,13.3,22,13.1,21.8,13z"/>
	<rect x="7" y="11" class="st0" width="10" height="6"/>
	<path class="st0" d="M17,21.8V25H3V3h14v2.1c0.8,0.7,1.9,1.5,3,2.4V0H0v28h20v-8.7C18.9,20.2,17.8,21.1,17,21.8z"/>
</g>
</svg>
