<?xml version="1.0" encoding="utf-8"?>
<!-- Generator: Adobe Illustrator 19.0.0, SVG Export Plug-In . SVG Version: 6.00 Build 0)  -->
<svg version="1.1" id="Слой_1" xmlns="http://www.w3.org/2000/svg" xmlns:xlink="http://www.w3.org/1999/xlink" x="0px" y="0px"
	 viewBox="0 0 158.1 171.9" style="enable-background:new 0 0 158.1 171.9;" xml:space="preserve">
<style type="text/css">
	.st0{fill:#FEE84B;}
	.st1{fill:#1C1C1C;}
</style>
<g id="ЛОГО">
	<polygon class="st0" points="33.6,171.9 0,171.9 0,162.7 0,127.2 33.6,127.2 	"/>
	<g>
		<path class="st1" d="M15.1,160.2c0-6.7,0-13.5,0-20.2c2.9,0,5.9,0,8.9,0c9.7,0,9.7,15,0,15h-3.7v5.2
			C18.5,160.2,16.8,160.2,15.1,160.2z M23.9,144.6c-1.2,0-2.5,0-3.7,0c0,1.6,0,4.1,0,5.8h3.7C26.8,150.4,26.9,144.7,23.9,144.6z"/>
		<path class="st1" d="M54.3,159.5v0.8h-5.8l-3.5-5.9h-2.7v5.9c-1.7,0-3.5,0-5.2,0c0-6.7,0-13.5,0-20.2c2.9,0,5.9,0,8.9,0
			c7.9,0,9.4,9.6,4.3,13L54.3,159.5z M46.1,144.6c-1.2,0-2.5,0-3.7,0c0,1.6,0,3.4,0,5.1h3.7C48.9,149.7,49,144.7,46.1,144.6z"/>
		<path class="st1" d="M57.6,150.1c0-14,20.7-14,20.7,0C78.4,164.1,57.6,164.1,57.6,150.1z M73.1,150.1c0-7.3-10.1-7.3-10.1,0
			C63,157.5,73.1,157.5,73.1,150.1z"/>
		<path class="st1" d="M96.5,153.5c0,4.4-3.6,7-7.8,7c-4.2,0-7.6-2.5-7.6-7v-2.6c1.6,0,3.3,0,4.9,0v2.5c0,1.6,1.2,2.4,2.7,2.4
			c1.5,0,2.5-0.8,2.5-2.4v-8.8h-2.9c0-1.6,0-3.1,0-4.6h8.2V153.5z"/>
		<path class="st1" d="M114.9,144.6c-3,0-4.5,0-7.5,0v2.9h6.9c0,1.5,0,3.1,0,4.6h-6.9c0,1.2,0,2.3,0,3.6c3,0,4.7,0,7.7,0
			c0,1.5,0,3.1,0,4.6c-4.7,0-8.2,0-12.9,0c0-6.8,0-13.5,0-20.2c4.7,0,7.9,0,12.6,0C114.9,141.5,114.9,143.1,114.9,144.6z"/>
		<path class="st1" d="M130.2,139.8c4.2,0,8.7,2.3,9.5,7.7c-1.8,0-3.3,0-5.1,0c-0.7-2-2.3-3-4.4-3c-3,0-5,2.3-5,5.6c0,3,2,5.6,5,5.6
			c2.2,0,4-1.1,4.5-3.3c1.7,0,3.3,0,5.1,0c-0.8,5.7-5.3,8-9.6,8c-5.1,0-10.3-3.4-10.4-10.3C119.8,143.2,125,139.8,130.2,139.8z"/>
		<path class="st1" d="M143.1,144.6c0-1.6,0-3.1,0-4.6h15c0,1.5,0,3.1,0,4.6h-4.9v15.6c-1.7,0-3.4,0-5.1,0v-15.6H143.1z"/>
	</g>
	<path class="st1" d="M112.5,28.6c-7.2,0-12.3,3.4-12.3,12.2c-10.6,0-16.8,0-27.2,0C72.6,13.8,90.8,0.6,113,0
		c36-0.9,51.7,34.7,33.1,63.5l-25.2,35.1h37.2c0,10.9,0,17.7,0,28.6h-88v-4.8l47-68.9C123.4,45.1,128.2,28.6,112.5,28.6z"/>
	<g>
		<path class="st1" d="M25.1,27.7v-26H62v125.6H34V27.7H25.1z"/>
	</g>
</g>
</svg>
