<?xml version="1.0" encoding="utf-8"?>
<!-- Generator: Adobe Illustrator 19.0.0, SVG Export Plug-In . SVG Version: 6.00 Build 0)  -->
<svg version="1.1" id="Слой_1" xmlns="http://www.w3.org/2000/svg" xmlns:xlink="http://www.w3.org/1999/xlink" x="0px" y="0px"
	 viewBox="0 0 19.3 24.9" style="enable-background:new 0 0 19.3 24.9;" xml:space="preserve">
<style type="text/css">
	.st0{fill-rule:evenodd;clip-rule:evenodd;fill:#FEE84B;}
</style>
<path class="st0" d="M8,16.3c-0.6,2.6-1.2,5-2.4,7c-0.4,0.6-0.8,1.3-1.4,1.7c-1-5,1-9.2,1.9-13.3c-1-2.1-0.4-5.6,1.8-6
	c3.2-0.6,2.3,3.2,1.8,5c-0.3,1-0.8,1.9-0.7,3c0.2,2.2,3,2.4,4.4,1.2c2.1-1.7,2.7-4.8,2.5-7.5c-0.3-4-4.8-6-8.8-4.4
	C4.9,3.8,3.1,5.7,2.8,8.4C2.7,9.9,3,11.1,3.5,11.9C3.6,12,3.9,12.2,4,12.6c0.1,0.7-0.3,1.4-0.7,1.9C1.2,13.9,0.2,12,0,9.7
	C-0.4,4.4,4,0.4,9.1,0c5.5-0.4,9.8,2.8,10.2,7.3c0.3,3.4-0.9,6.9-2.8,8.7c-1.4,1.4-4.5,2.7-7,1.4C8.8,17.2,8.6,16.8,8,16.3z"/>
</svg>
