<?xml version="1.0" encoding="utf-8"?>
<!-- Generator: Adobe Illustrator 19.0.0, SVG Export Plug-In . SVG Version: 6.00 Build 0)  -->
<svg version="1.1" id="Слой_1" xmlns="http://www.w3.org/2000/svg" xmlns:xlink="http://www.w3.org/1999/xlink" x="0px" y="0px"
	 viewBox="0 0 61 61" style="enable-background:new 0 0 61 61;" xml:space="preserve">
<style type="text/css">
	.st0{fill:#010101;}
</style>
<g id="Значок__x22_Відео_x22_">
	<g>
		<path class="st0" d="M39.1,29.3c0,0-12.6-6.5-12.9-6.7c-0.9-0.4-1.7,0.1-1.7,1.1v13.2c0,0.1,0,0.1,0,0.2c0.1,0.6,0.5,1.1,1.1,1.1
			c0.2,0,0.4,0,0.6-0.1c0.3-0.1,10.9-5.6,13-6.7c0.4-0.2,0.6-0.6,0.6-1C39.8,29.9,39.5,29.5,39.1,29.3z"/>
	</g>
	<g>
		<path id="XMLID_15_" class="st0" d="M30.5,61C13.7,61,0,47.3,0,30.5C0,13.7,13.7,0,30.5,0C47.3,0,61,13.7,61,30.5
			C61,47.3,47.3,61,30.5,61z M30.5,5C16.4,5,5,16.4,5,30.5C5,44.6,16.4,56,30.5,56S56,44.6,56,30.5C56,16.4,44.6,5,30.5,5z"/>
	</g>
</g>
</svg>
