<?xml version="1.0" encoding="utf-8"?>
<!-- Generator: Adobe Illustrator 19.2.1, SVG Export Plug-In . SVG Version: 6.00 Build 0)  -->
<svg version="1.1" id="Слой_1" xmlns="http://www.w3.org/2000/svg" xmlns:xlink="http://www.w3.org/1999/xlink" x="0px" y="0px"
	 viewBox="0 0 54.6 41.8" style="enable-background:new 0 0 54.6 41.8;" xml:space="preserve">
<style type="text/css">
	.st0{fill:#FFFFFF;}
</style>
<path class="st0" d="M31.4,0l-10,18.2l-4.4-4.8L0,39.8c1.2,0.7,2.3,1.3,3.5,1.9l6.5-10l4.5,6.2L22,24.9l0.2,0.3l3.2-5.8l3.8,3.8
	l2.4-2.4l6,7.8l3.7-3.7l9.8,16.6c1.2-0.6,2.4-1.3,3.5-2L31.4,0z M14.3,34.3l-3.1-4.3l6.4-9.9l3,3.3L14.3,34.3z M37.8,25.4l-6-7.8
	l-2.6,2.6l-2.7-2.8l5.1-9.3L40.2,23L37.8,25.4z"/>
</svg>
