<?xml version="1.0" encoding="utf-8"?>
<!-- Generator: Adobe Illustrator 19.2.1, SVG Export Plug-In . SVG Version: 6.00 Build 0)  -->
<svg version="1.1" id="Слой_1" xmlns="http://www.w3.org/2000/svg" xmlns:xlink="http://www.w3.org/1999/xlink" x="0px" y="0px"
	 viewBox="0 0 19.9 19.9" style="enable-background:new 0 0 19.9 19.9;" xml:space="preserve">
<style type="text/css">
	.st0{fill:#1D1D1B;}
</style>
<g>
	<g>
		<path class="st0" d="M10,19.9c-5.5,0-10-4.5-10-10S4.5,0,10,0c5.5,0,10,4.5,10,10S15.4,19.9,10,19.9z M10,1.8
			c-4.5,0-8.2,3.7-8.2,8.2c0,4.5,3.7,8.2,8.2,8.2c4.5,0,8.2-3.7,8.2-8.2C18.1,5.4,14.5,1.8,10,1.8z"/>
	</g>
	<g>
		<polygon class="st0" points="9.7,14.1 8.4,12.9 11.3,10 8.4,7.1 9.7,5.8 13.8,10 		"/>
	</g>
</g>
</svg>
