<?xml version="1.0" encoding="utf-8"?>
<!-- Generator: Adobe Illustrator 19.2.1, SVG Export Plug-In . SVG Version: 6.00 Build 0)  -->
<svg version="1.1" id="Слой_1" xmlns="http://www.w3.org/2000/svg" xmlns:xlink="http://www.w3.org/1999/xlink" x="0px" y="0px"
	 viewBox="0 0 41.8 41.8" style="enable-background:new 0 0 41.8 41.8;" xml:space="preserve">
<style type="text/css">
	.st0{fill:#FFFFFF;}
</style>
<g>
	<path class="st0" d="M20.9,0C9.4,0,0,9.4,0,20.9s9.4,20.9,20.9,20.9s20.9-9.4,20.9-20.9S32.5,0,20.9,0z M20.9,37.9
		c-9.3,0-17-7.6-17-16.9S11.6,4,20.9,4s17,7.6,17,16.9S30.3,37.9,20.9,37.9z"/>
	<g>
		<path class="st0" d="M23.9,12.2c-1.5,0-2.7-1.2-2.7-2.7c0-1.5,1.2-2.7,2.7-2.7c1.5,0,2.7,1.2,2.7,2.7C26.6,11,25.4,12.2,23.9,12.2
			z M23.9,8.5c-0.6,0-1,0.5-1,1c0,0.6,0.5,1,1,1c0.6,0,1-0.5,1-1C24.9,8.9,24.5,8.5,23.9,8.5z"/>
	</g>
	<g>
		<path class="st0" d="M11.8,23.4c-2.1,0-3.9-1.7-3.9-3.9c0-2.1,1.7-3.9,3.9-3.9c2.1,0,3.9,1.7,3.9,3.9
			C15.6,21.7,13.9,23.4,11.8,23.4z M11.8,17.4c-1.2,0-2.2,1-2.2,2.2c0,1.2,1,2.2,2.2,2.2c1.2,0,2.2-1,2.2-2.2
			C13.9,18.4,12.9,17.4,11.8,17.4z"/>
	</g>
	<g>
		<path class="st0" d="M16.5,32.9c-1.5,0-2.7-1.2-2.7-2.7c0-1.5,1.2-2.7,2.7-2.7c1.5,0,2.7,1.2,2.7,2.7C19.2,31.6,18,32.9,16.5,32.9
			z M16.5,29.1c-0.6,0-1,0.5-1,1s0.5,1,1,1c0.6,0,1-0.5,1-1S17.1,29.1,16.5,29.1z"/>
	</g>
	<g>
		<path class="st0" d="M27.6,31.8c-2.6,0-4.7-2.1-4.7-4.7c0-2.6,2.1-4.7,4.7-4.7c2.6,0,4.7,2.1,4.7,4.7
			C32.3,29.7,30.2,31.8,27.6,31.8z M27.6,24.2c-1.6,0-3,1.3-3,3c0,1.6,1.3,3,3,3c1.6,0,3-1.3,3-3C30.6,25.5,29.2,24.2,27.6,24.2z"/>
	</g>
	<g>
		<path class="st0" d="M29.6,20.2c-1.7,0-3.1-1.4-3.1-3.1c0-1.7,1.4-3.1,3.1-3.1c1.7,0,3.1,1.4,3.1,3.1
			C32.7,18.9,31.3,20.2,29.6,20.2z M29.6,15.8c-0.8,0-1.4,0.6-1.4,1.4c0,0.8,0.6,1.4,1.4,1.4c0.8,0,1.4-0.6,1.4-1.4
			C31,16.4,30.4,15.8,29.6,15.8z"/>
	</g>
</g>
</svg>
