<?xml version="1.0" encoding="utf-8"?>
<!-- Generator: Adobe Illustrator 19.2.1, SVG Export Plug-In . SVG Version: 6.00 Build 0)  -->
<svg version="1.1" id="Слой_1" xmlns="http://www.w3.org/2000/svg" xmlns:xlink="http://www.w3.org/1999/xlink" x="0px" y="0px"
	 viewBox="0 0 6 25" style="enable-background:new 0 0 6 25;" xml:space="preserve">
<style type="text/css">
	.st0{fill:#FFFFFF;}
</style>
<g>
	<path class="st0" d="M0,22.1c0-0.4,0.1-0.8,0.2-1.1c0.2-0.4,0.4-0.7,0.6-0.9s0.6-0.5,0.9-0.6c0.4-0.2,0.8-0.2,1.2-0.2
		c0.4,0,0.8,0.1,1.2,0.2c0.4,0.2,0.7,0.4,1,0.6s0.5,0.6,0.6,0.9C5.9,21.3,6,21.7,6,22.1s-0.1,0.8-0.2,1.1c-0.2,0.4-0.4,0.7-0.6,0.9
		s-0.6,0.5-1,0.6C3.8,24.9,3.4,25,3,25c-0.4,0-0.8-0.1-1.2-0.2c-0.4-0.1-0.7-0.4-0.9-0.6s-0.5-0.6-0.6-0.9S0,22.5,0,22.1z M5.5,0
		v9.7c0,1-0.1,2.1-0.2,3.1c-0.1,1-0.3,2.1-0.5,3.1H1.3c-0.2-1.1-0.4-2.1-0.5-3.1c-0.1-1-0.2-2.1-0.2-3.1V0H5.5z"/>
</g>
</svg>
