<?xml version="1.0" encoding="utf-8"?>
<!-- Generator: Adobe Illustrator 19.0.0, SVG Export Plug-In . SVG Version: 6.00 Build 0)  -->
<svg version="1.1" id="Слой_1" width="244" height="874" xmlns="http://www.w3.org/2000/svg" xmlns:xlink="http://www.w3.org/1999/xlink" x="0px" y="0px"
	 viewBox="0 0 244.1 874" style="enable-background:new 0 0 244.1 874;" xml:space="preserve">
<style type="text/css">
	.st0{opacity:0.1;}
	.st1{fill:#FFFFFF;}
</style>
<g class="st0">
	<path id="XMLID_30_" class="st1" d="M222.8,446.8l-31.4-21.4l21.4-31.4l31.4,21.4L222.8,446.8z M198.3,424.1l23.2,15.7l15.7-23.2
		L214,400.9L198.3,424.1z"/>
</g>
<g class="st0">
	<path id="XMLID_27_" class="st1" d="M141.1,874c-7.9,0-14.2-6.4-14.2-14.2s6.4-14.2,14.2-14.2s14.2,6.4,14.2,14.2
		S149,874,141.1,874z M141.1,850.5c-5.1,0-9.2,4.1-9.2,9.2s4.1,9.2,9.2,9.2s9.2-4.1,9.2-9.2S146.2,850.5,141.1,850.5z"/>
</g>
<g class="st0">
	<path id="XMLID_24_" class="st1" d="M134.1,281.5c-10.9,0-19.7-8.9-19.7-19.7c0-10.9,8.9-19.7,19.7-19.7c10.9,0,19.8,8.9,19.8,19.7
		C153.8,272.6,145,281.5,134.1,281.5z M134.1,247c-8.1,0-14.7,6.6-14.7,14.7c0,8.1,6.6,14.7,14.7,14.7s14.8-6.6,14.8-14.7
		C148.8,253.6,142.2,247,134.1,247z"/>
</g>
<g class="st0">
	<path id="XMLID_21_" class="st1" d="M112.1,63.5c-17.5,0-31.7-14.2-31.7-31.7C80.3,14.2,94.6,0,112.1,0c17.5,0,31.8,14.2,31.8,31.8
		C143.8,49.3,129.6,63.5,112.1,63.5z M112.1,5C97.3,5,85.3,17,85.3,31.7c0,14.7,12,26.7,26.7,26.7c14.8,0,26.8-12,26.8-26.7
		C138.8,17,126.8,5,112.1,5z"/>
</g>
<g class="st0">
	
		<rect id="XMLID_20_" x="-2.7" y="385.5" transform="matrix(0.832 0.5547 -0.5547 0.832 218.8503 53.1615)" class="st1" width="48.7" height="5"/>
</g>
<g class="st0">
	
		<rect id="XMLID_19_" x="145.3" y="812.5" transform="matrix(0.832 0.5547 -0.5547 0.832 480.5663 42.781)" class="st1" width="48.7" height="5"/>
</g>
<g class="st0">
	<path id="XMLID_16_" class="st1" d="M89.4,616.5l-19-24l16.9-25.5l29.5,8.2l1.3,30.6L89.4,616.5z M76.5,592.3L91,610.6l21.9-8.2
		l-1-23.3l-22.5-6.3L76.5,592.3z"/>
</g>
</svg>
