<?xml version="1.0" encoding="utf-8"?>
<!-- Generator: Adobe Illustrator 19.0.0, SVG Export Plug-In . SVG Version: 6.00 Build 0)  -->
<svg version="1.1" id="Слой_1" width="262" height="1014" xmlns="http://www.w3.org/2000/svg" xmlns:xlink="http://www.w3.org/1999/xlink" x="0px" y="0px"
	 viewBox="0 0 262.4 1014" style="enable-background:new 0 0 262.4 1014;" xml:space="preserve">
<style type="text/css">
	.st0{opacity:0.1;}
	.st1{fill:#FFFFFF;}
</style>
<g class="st0">
	<path id="XMLID_35_" class="st1" d="M81.2,234.2l-19.9-47l47-19.9l19.9,47L81.2,234.2z M67.9,189.9l16,37.8l37.8-16l-16-37.8
		L67.9,189.9z"/>
</g>
<g class="st0">
	<path id="XMLID_32_" class="st1" d="M176.3,55V0l49.1,28L176.3,55z M181.3,8.6v38l33.9-18.7L181.3,8.6z"/>
</g>
<g class="st0">
	<path id="XMLID_29_" class="st1" d="M58.3,1014v-34l30.4,17.3L58.3,1014z M63.3,988.6v17l15.1-8.3L63.3,988.6z"/>
</g>
<g class="st0">
	<path id="XMLID_26_" class="st1" d="M241.1,373.4c-11.7,0-21.2-9.5-21.2-21.2s9.5-21.2,21.2-21.2s21.2,9.5,21.2,21.2
		S252.8,373.4,241.1,373.4z M241.1,335.9c-9,0-16.2,7.3-16.2,16.2s7.3,16.2,16.2,16.2s16.2-7.3,16.2-16.2S250.1,335.9,241.1,335.9z"
		/>
</g>
<g class="st0">
	<path id="XMLID_23_" class="st1" d="M118.6,909.4c-16.4,0-29.7-13.3-29.7-29.7s13.3-29.7,29.7-29.7c16.4,0,29.7,13.3,29.7,29.7
		S135,909.4,118.6,909.4z M118.6,854.9c-13.6,0-24.7,11.1-24.7,24.7s11.1,24.7,24.7,24.7s24.7-11.1,24.7-24.7
		S132.3,854.9,118.6,854.9z"/>
</g>
<g class="st0">
	<path id="XMLID_20_" class="st1" d="M230.1,719.4c-7.9,0-14.2-6.4-14.2-14.2s6.4-14.2,14.2-14.2s14.2,6.4,14.2,14.2
		S238,719.4,230.1,719.4z M230.1,695.9c-5.1,0-9.2,4.1-9.2,9.2s4.1,9.2,9.2,9.2s9.2-4.1,9.2-9.2S235.2,695.9,230.1,695.9z"/>
</g>
<g class="st0">
	
		<rect id="XMLID_19_" x="-2.7" y="746.9" transform="matrix(0.832 0.5547 -0.5547 0.832 419.3372 113.8647)" class="st1" width="48.7" height="5"/>
</g>
<g class="st0">
	<path id="XMLID_16_" class="st1" d="M91.1,500.2l-26.5-33.4l23.6-35.5l41.1,11.4l1.8,42.6L91.1,500.2z M70.8,466.5l22,27.7
		l33.1-12.4l-1.5-35.3l-34.1-9.5L70.8,466.5z"/>
</g>
</svg>
