<?xml version="1.0" encoding="utf-8"?>
<!-- Generator: Adobe Illustrator 19.0.0, SVG Export Plug-In . SVG Version: 6.00 Build 0)  -->
<svg version="1.1" id="Слой_1" width="235" height="589" xmlns="http://www.w3.org/2000/svg" xmlns:xlink="http://www.w3.org/1999/xlink" x="0px" y="0px"
	 viewBox="0 0 235 589.5" style="enable-background:new 0 0 235 589.5;" xml:space="preserve">
<style type="text/css">
	.st0{opacity:0.6;}
	.st1{fill:#FFFFFF;}
</style>
<g class="st0">
	<path id="XMLID_28_" class="st1" d="M19.9,230.3L0,183.3l47-19.9l19.9,47L19.9,230.3z M6.6,186l16,37.8l37.8-16l-16-37.8L6.6,186z"
		/>
</g>
<g class="st0">
	<path id="XMLID_25_" class="st1" d="M147.9,285.1v-55l49.1,28L147.9,285.1z M152.9,238.7v38l33.9-18.7L152.9,238.7z"/>
</g>
<g class="st0">
	<path id="XMLID_22_" class="st1" d="M213.8,42.5c-11.7,0-21.2-9.5-21.2-21.2S202.1,0,213.8,0S235,9.5,235,21.2
		S225.5,42.5,213.8,42.5z M213.8,5c-9,0-16.2,7.3-16.2,16.2s7.3,16.2,16.2,16.2S230,30.2,230,21.2S222.8,5,213.8,5z"/>
</g>
<g class="st0">
	<path id="XMLID_19_" class="st1" d="M212.8,589.5c-7.9,0-14.2-6.4-14.2-14.2s6.4-14.2,14.2-14.2s14.2,6.4,14.2,14.2
		S220.7,589.5,212.8,589.5z M212.8,566c-5.1,0-9.2,4.1-9.2,9.2s4.1,9.2,9.2,9.2s9.2-4.1,9.2-9.2S217.9,566,212.8,566z"/>
</g>
<g class="st0">
	<path id="XMLID_16_" class="st1" d="M62.8,524.3l-26.5-33.4l23.6-35.5l41.1,11.4l1.8,42.6L62.8,524.3z M42.4,490.6l22,27.7
		L97.6,506l-1.5-35.3L62,461.1L42.4,490.6z"/>
</g>
</svg>
