<?xml version="1.0" encoding="utf-8"?>
<!-- Generator: Adobe Illustrator 19.0.0, SVG Export Plug-In . SVG Version: 6.00 Build 0)  -->
<svg version="1.1" id="Слой_1" width="182" height="567" xmlns="http://www.w3.org/2000/svg" xmlns:xlink="http://www.w3.org/1999/xlink" x="0px" y="0px"
	 viewBox="0 0 182.5 567.6" style="enable-background:new 0 0 182.5 567.6;" xml:space="preserve">
<style type="text/css">
	.st0{opacity:0.6;}
	.st1{fill:#FFFFFF;}
</style>
<g class="st0">
	<path id="XMLID_24_" class="st1" d="M31.4,446.8L0,425.4L21.4,394l31.4,21.4L31.4,446.8z M6.9,424.1l23.2,15.7l15.7-23.2
		l-23.2-15.7L6.9,424.1z"/>
</g>
<g class="st0">
	<path id="XMLID_21_" class="st1" d="M162.7,39.5c-10.9,0-19.7-8.9-19.7-19.7C143,8.9,151.8,0,162.7,0c10.9,0,19.8,8.9,19.8,19.8
		C182.5,30.6,173.6,39.5,162.7,39.5z M162.7,5c-8.1,0-14.7,6.6-14.7,14.7c0,8.1,6.6,14.7,14.7,14.7s14.8-6.6,14.8-14.7
		C177.5,11.6,170.9,5,162.7,5z"/>
</g>
<g class="st0">
	
		<rect id="XMLID_20_" x="48.9" y="153.5" transform="matrix(0.832 0.5547 -0.5547 0.832 98.8322 -14.4495)" class="st1" width="48.7" height="5"/>
</g>
<g class="st0">
	
		<rect id="XMLID_19_" x="111.9" y="549.5" transform="matrix(0.832 0.5547 -0.5547 0.832 329.0763 17.1134)" class="st1" width="48.7" height="5"/>
</g>
<g class="st0">
	<path id="XMLID_16_" class="st1" d="M139.6,359.6L112,324.9l24.5-36.9l42.7,11.9l1.9,44.3L139.6,359.6z M118.2,324.6l23,29
		l34.7-12.9l-1.6-37l-35.7-9.9L118.2,324.6z"/>
</g>
</svg>
