<?xml version="1.0" encoding="utf-8"?>
<!-- Generator: Adobe Illustrator 19.2.1, SVG Export Plug-In . SVG Version: 6.00 Build 0)  -->
<svg version="1.1" width="84" height="84" id="Слой_1" xmlns="http://www.w3.org/2000/svg" xmlns:xlink="http://www.w3.org/1999/xlink" x="0px" y="0px"
	 viewBox="0 0 84.3 84.3" style="enable-background:new 0 0 84.3 84.3;" xml:space="preserve">
<style type="text/css">
	.st0{fill:#FEE84B;}
</style>
<g id="смайлик_2_">
	<g>
		<path class="st0" d="M42.2,84.3C18.9,84.3,0,65.4,0,42.2S18.9,0,42.2,0c23.3,0,42.2,18.9,42.2,42.2S65.4,84.3,42.2,84.3z M42.2,3
			C20.6,3,3,20.6,3,42.2s17.6,39.2,39.2,39.2s39.2-17.6,39.2-39.2S63.8,3,42.2,3z"/>
	</g>
	<g>
		<path class="st0" d="M63.1,63h-3c0-10-8.1-18-18-18s-18,8-18,18h-3c0-12,9.4-21,21-21S63.1,51,63.1,63z"/>
	</g>
	<g>
		
			<rect x="20.5" y="27.3" transform="matrix(0.7071 -0.7071 0.7071 0.7071 -11.7046 29.3524)" class="st0" width="18.1" height="3"/>
	</g>
	<g>
		<rect x="52.5" y="19.8" transform="matrix(0.7071 -0.7071 0.7071 0.7071 -4.5586 46.6042)" class="st0" width="3" height="18.1"/>
	</g>
	<g>
		<path class="st0" d="M32.1,36.7c-3,0-5.4-2.4-5.4-5.4c0-3,2.4-5.4,5.4-5.4c3,0,5.4,2.4,5.4,5.4C37.5,34.3,35.1,36.7,32.1,36.7z
			 M32.1,29c-1.3,0-2.4,1.1-2.4,2.4c0,1.3,1.1,2.4,2.4,2.4c1.3,0,2.4-1.1,2.4-2.4C34.5,30,33.4,29,32.1,29z"/>
	</g>
	<g>
		<path class="st0" d="M50.7,36.7c-3,0-5.4-2.4-5.4-5.4c0-3,2.4-5.4,5.4-5.4s5.4,2.4,5.4,5.4C56.1,34.3,53.6,36.7,50.7,36.7z
			 M50.7,29c-1.3,0-2.4,1.1-2.4,2.4c0,1.3,1.1,2.4,2.4,2.4s2.4-1.1,2.4-2.4C53.1,30,52,29,50.7,29z"/>
	</g>
</g>
</svg>
