<?xml version="1.0" encoding="utf-8"?>
<!-- Generator: Adobe Illustrator 19.2.1, SVG Export Plug-In . SVG Version: 6.00 Build 0)  -->
<svg version="1.1" id="Слой_1" xmlns="http://www.w3.org/2000/svg" xmlns:xlink="http://www.w3.org/1999/xlink" x="0px" y="0px"
	 viewBox="0 0 108.8 23" style="enable-background:new 0 0 108.8 23;" xml:space="preserve">
<style type="text/css">
	.st0{fill:#FFFFFF;}
	.st1{fill:#1C1C1C;}
</style>
<g>
	<polygon class="st0" points="44.8,23 27.6,23 27.6,18.2 27.6,0 44.8,0 	"/>
	<g>
		<path class="st1" d="M35.3,17c0-3.5,0-6.9,0-10.4c1.5,0,3,0,4.6,0c5,0,5,7.7,0,7.7h-1.9V17C37.1,17,36.2,17,35.3,17z M39.8,9
			c-0.6,0-1.3,0-1.9,0c0,0.8,0,2.1,0,3h1.9C41.3,11.9,41.4,9,39.8,9z"/>
		<path class="st1" d="M55.4,16.6V17h-3l-1.8-3.1h-1.4V17c-0.9,0-1.8,0-2.7,0c0-3.5,0-6.9,0-10.4c1.5,0,3,0,4.5,0
			c4.1,0,4.8,4.9,2.2,6.7L55.4,16.6z M51.2,9c-0.6,0-1.3,0-1.9,0c0,0.8,0,1.8,0,2.6h1.9C52.7,11.5,52.7,9,51.2,9z"/>
		<path class="st1" d="M57.2,11.8c0-7.2,10.6-7.2,10.6,0C67.8,19,57.2,19,57.2,11.8z M65.1,11.8c0-3.7-5.2-3.7-5.2,0
			C59.9,15.6,65.1,15.6,65.1,11.8z"/>
		<path class="st1" d="M77.1,13.5c0,2.3-1.9,3.6-4,3.6c-2.1,0-3.9-1.3-3.9-3.6v-1.3c0.8,0,1.7,0,2.5,0v1.3c0,0.8,0.6,1.2,1.4,1.2
			s1.3-0.4,1.3-1.2V8.9h-1.5c0-0.8,0-1.6,0-2.4h4.2V13.5z"/>
		<path class="st1" d="M86.5,9c-1.5,0-2.3,0-3.8,0v1.5h3.5c0,0.8,0,1.6,0,2.4h-3.5c0,0.6,0,1.2,0,1.8c1.5,0,2.4,0,4,0
			c0,0.8,0,1.6,0,2.4c-2.4,0-4.2,0-6.6,0c0-3.5,0-6.9,0-10.4c2.4,0,4,0,6.5,0C86.5,7.4,86.5,8.2,86.5,9z"/>
		<path class="st1" d="M94.4,6.5c2.1,0,4.5,1.2,4.9,3.9c-0.9,0-1.7,0-2.6,0c-0.4-1.1-1.2-1.5-2.3-1.5c-1.6,0-2.6,1.2-2.6,2.9
			c0,1.5,1,2.9,2.6,2.9c1.1,0,2-0.6,2.3-1.7c0.9,0,1.7,0,2.6,0c-0.4,2.9-2.7,4.1-4.9,4.1c-2.6,0-5.3-1.8-5.3-5.3
			C89.1,8.2,91.7,6.5,94.4,6.5z"/>
		<path class="st1" d="M101,9c0-0.8,0-1.6,0-2.4h7.7c0,0.8,0,1.6,0,2.4h-2.5v8c-0.9,0-1.8,0-2.6,0V9H101z"/>
	</g>
	<path class="st1" d="M15.6,5.3c-1.3,0-2.2,0.6-2.2,2.2c-1.9,0-3,0-4.8,0c-0.1-4.8,3.2-7.2,7.1-7.3c6.4-0.2,9.2,6.2,5.9,11.3
		l-4.5,6.3h6.6c0,1.9,0,3.2,0,5.1H8V22l8.4-12.3C17.5,8.2,18.4,5.3,15.6,5.3z"/>
	<g>
		<path class="st1" d="M0,5.1V0.4h6.6v22.4h-5V5.1H0z"/>
	</g>
</g>
</svg>
