<?xml version="1.0" encoding="utf-8"?>
<!-- Generator: Adobe Illustrator 19.2.1, SVG Export Plug-In . SVG Version: 6.00 Build 0)  -->
<svg version="1.1" id="Слой_1" xmlns="http://www.w3.org/2000/svg" xmlns:xlink="http://www.w3.org/1999/xlink" x="0px" y="0px"
	 viewBox="0 0 84.4 91.8" style="enable-background:new 0 0 84.4 91.8;" xml:space="preserve">
<style type="text/css">
	.st0{fill:#FFFFFF;}
	.st1{fill:#1C1C1C;}
</style>
<g id="лого_6_">
	<polygon class="st0" points="17.9,91.8 0,91.8 0,86.8 0,67.9 17.9,67.9 	"/>
	<g>
		<path class="st1" d="M8,85.5c0-3.6,0-7.2,0-10.8c1.6,0,3.2,0,4.7,0c5.2,0,5.2,8,0,8h-2v2.8C9.9,85.5,9,85.5,8,85.5z M12.8,77.2
			c-0.6,0-1.3,0-2,0c0,0.9,0,2.2,0,3.1h2C14.3,80.3,14.4,77.2,12.8,77.2z"/>
		<path class="st1" d="M29,85.1v0.4h-3.1l-1.8-3.2h-1.4v3.2c-0.9,0-1.9,0-2.8,0c0-3.6,0-7.2,0-10.8c1.6,0,3.2,0,4.7,0
			c4.2,0,5,5.1,2.3,7L29,85.1z M24.6,77.2c-0.6,0-1.3,0-2,0c0,0.9,0,1.8,0,2.7h2C26.1,79.9,26.2,77.2,24.6,77.2z"/>
		<path class="st1" d="M30.8,80.1c0-7.5,11.1-7.5,11.1,0C41.8,87.6,30.8,87.6,30.8,80.1z M39,80.1c0-3.9-5.4-3.9-5.4,0
			C33.6,84,39,84,39,80.1z"/>
		<path class="st1" d="M51.5,81.9c0,2.4-1.9,3.7-4.2,3.7c-2.2,0-4-1.4-4-3.7v-1.4c0.8,0,1.7,0,2.6,0v1.4c0,0.8,0.6,1.3,1.4,1.3
			s1.3-0.4,1.3-1.3v-4.7h-1.6c0-0.8,0-1.6,0-2.4h4.4V81.9z"/>
		<path class="st1" d="M61.3,77.2c-1.6,0-2.4,0-4,0v1.5H61c0,0.8,0,1.6,0,2.4h-3.7c0,0.6,0,1.2,0,1.9c1.6,0,2.5,0,4.1,0
			c0,0.8,0,1.6,0,2.4c-2.5,0-4.4,0-6.9,0c0-3.6,0-7.2,0-10.8c2.5,0,4.2,0,6.7,0C61.3,75.5,61.3,76.4,61.3,77.2z"/>
		<path class="st1" d="M69.5,74.6c2.2,0,4.7,1.2,5.1,4.1c-0.9,0-1.8,0-2.7,0c-0.4-1.1-1.2-1.6-2.4-1.6c-1.6,0-2.7,1.2-2.7,3
			c0,1.6,1,3,2.7,3c1.2,0,2.1-0.6,2.4-1.7c0.9,0,1.8,0,2.7,0c-0.4,3.1-2.8,4.3-5.1,4.3c-2.7,0-5.5-1.8-5.5-5.5
			C63.9,76.4,66.7,74.6,69.5,74.6z"/>
		<path class="st1" d="M76.4,77.2c0-0.8,0-1.6,0-2.5h8c0,0.8,0,1.6,0,2.5h-2.6v8.3c-0.9,0-1.8,0-2.7,0v-8.3H76.4z"/>
	</g>
	<path class="st1" d="M60,15.3c-3.8,0-6.6,1.8-6.6,6.5c-5.6,0-9,0-14.5,0C38.7,7.4,48.5,0.3,60.3,0C79.5-0.5,87.9,18.5,78,33.9
		L64.5,52.6h19.9c0,5.8,0,9.4,0,15.3h-47v-2.6l25.1-36.7C65.8,24.1,68.4,15.3,60,15.3z"/>
	<g>
		<path class="st1" d="M13.4,14.8V0.9h19.7v67H18.1V14.8H13.4z"/>
	</g>
</g>
</svg>
