<?xml version="1.0" encoding="utf-8"?>
<!-- Generator: Adobe Illustrator 19.2.1, SVG Export Plug-In . SVG Version: 6.00 Build 0)  -->
<svg version="1.1" width="51" height="56" id="Слой_1" xmlns="http://www.w3.org/2000/svg" xmlns:xlink="http://www.w3.org/1999/xlink" x="0px" y="0px"
	 viewBox="0 0 51.5 56" style="enable-background:new 0 0 51.5 56;" xml:space="preserve">
<style type="text/css">
	.st0{fill:#717070;}
	.st1{fill:#FFFFFF;}
</style>
<g id="лого_5_">
	<polygon class="st0" points="10.9,56 0,56 0,53 0,41.4 10.9,41.4 	"/>
	<g>
		<path class="st1" d="M4.9,52.2c0-2.2,0-4.4,0-6.6c0.9,0,1.9,0,2.9,0c3.1,0,3.1,4.9,0,4.9H6.6v1.7C6,52.2,5.5,52.2,4.9,52.2z
			 M7.8,47.1c-0.4,0-0.8,0-1.2,0c0,0.5,0,1.3,0,1.9h1.2C8.7,49,8.8,47.1,7.8,47.1z"/>
		<path class="st1" d="M17.7,51.9v0.2h-1.9l-1.1-1.9h-0.9v1.9c-0.6,0-1.1,0-1.7,0c0-2.2,0-4.4,0-6.6c0.9,0,1.9,0,2.9,0
			c2.6,0,3.1,3.1,1.4,4.2L17.7,51.9z M15,47.1c-0.4,0-0.8,0-1.2,0c0,0.5,0,1.1,0,1.6H15C15.9,48.8,16,47.1,15,47.1z"/>
		<path class="st1" d="M18.8,48.9c0-4.6,6.8-4.6,6.8,0C25.5,53.5,18.8,53.5,18.8,48.9z M23.8,48.9c0-2.4-3.3-2.4-3.3,0
			C20.5,51.3,23.8,51.3,23.8,48.9z"/>
		<path class="st1" d="M31.4,50c0,1.4-1.2,2.3-2.5,2.3c-1.4,0-2.5-0.8-2.5-2.3v-0.9c0.5,0,1.1,0,1.6,0V50c0,0.5,0.4,0.8,0.9,0.8
			c0.5,0,0.8-0.3,0.8-0.8v-2.9h-1c0-0.5,0-1,0-1.5h2.7V50z"/>
		<path class="st1" d="M37.4,47.1c-1,0-1.5,0-2.4,0V48h2.2c0,0.5,0,1,0,1.5H35c0,0.4,0,0.8,0,1.2c1,0,1.5,0,2.5,0c0,0.5,0,1,0,1.5
			c-1.5,0-2.7,0-4.2,0c0-2.2,0-4.4,0-6.6c1.5,0,2.6,0,4.1,0C37.4,46.1,37.4,46.6,37.4,47.1z"/>
		<path class="st1" d="M42.4,45.5c1.4,0,2.8,0.7,3.1,2.5c-0.6,0-1.1,0-1.7,0c-0.2-0.7-0.7-1-1.4-1c-1,0-1.6,0.7-1.6,1.8
			c0,1,0.6,1.8,1.6,1.8c0.7,0,1.3-0.4,1.5-1.1c0.6,0,1.1,0,1.7,0c-0.2,1.9-1.7,2.6-3.1,2.6c-1.7,0-3.4-1.1-3.4-3.4
			C39,46.7,40.7,45.5,42.4,45.5z"/>
		<path class="st1" d="M46.6,47.1c0-0.5,0-1,0-1.5h4.9c0,0.5,0,1,0,1.5h-1.6v5.1c-0.6,0-1.1,0-1.7,0v-5.1H46.6z"/>
	</g>
	<path class="st1" d="M36.6,9.3c-2.3,0-4,1.1-4,4c-3.4,0-5.5,0-8.9,0C23.6,4.5,29.6,0.2,36.8,0c11.7-0.3,16.8,11.3,10.8,20.7
		l-8.2,11.4h12.1c0,3.6,0,5.8,0,9.3H22.8v-1.6l15.3-22.4C40.2,14.7,41.8,9.3,36.6,9.3z"/>
	<g>
		<path class="st1" d="M8.2,9V0.5h12v40.9h-9.1V9H8.2z"/>
	</g>
</g>
</svg>
