<?xml version="1.0" encoding="utf-8"?>
<!-- Generator: Adobe Illustrator 19.0.0, SVG Export Plug-In . SVG Version: 6.00 Build 0)  -->
<svg version="1.1" width="68" height="100" id="Слой_1" xmlns="http://www.w3.org/2000/svg" xmlns:xlink="http://www.w3.org/1999/xlink" x="0px" y="0px"
	 viewBox="0 0 68.3 100" style="enable-background:new 0 0 68.3 100;" xml:space="preserve">
<style type="text/css">
	.st0{fill:#FEE84B;}
	.st1{fill:#1C1C1C;}
</style>
<g id="місцезнаходження">
	<path id="фон_5_" class="st0" d="M68.3,34.1C68.3,56,34.1,100,34.1,100S0,56,0,34.1C0,15.3,15.3,0,34.1,0
		C53,0,68.3,15.3,68.3,34.1z"/>
	<path class="st1" d="M40.4,26.2c-2.1,0-3.6,1-3.6,3.5c-3.1,0-4.9,0-7.9,0c-0.1-7.9,5.2-11.7,11.6-11.9c10.5-0.3,15,10.1,9.6,18.5
		l-7.3,10.2h10.8c0,3.2,0,5.1,0,8.3H28.1v-1.4l13.7-20C43.6,30.9,45,26.2,40.4,26.2z"/>
	<path class="st1" d="M15,25.9v-7.6h10.7v36.5h-8.1V25.9H15z"/>
</g>
</svg>
