<?xml version="1.0" encoding="utf-8"?>
<!-- Generator: Adobe Illustrator 19.2.1, SVG Export Plug-In . SVG Version: 6.00 Build 0)  -->
<svg version="1.1" id="Слой_1" width="73" height="73" xmlns="http://www.w3.org/2000/svg" xmlns:xlink="http://www.w3.org/1999/xlink" x="0px" y="0px"
	 viewBox="0 0 73 73" style="enable-background:new 0 0 73 73;" xml:space="preserve">
<style type="text/css">
	.st0{fill:#FEE84B;}
</style>
<g>
	<path class="st0" d="M36.5,73C16.4,73,0,56.6,0,36.5S16.4,0,36.5,0S73,16.4,73,36.5S56.6,73,36.5,73z M36.5,3C18,3,3,18,3,36.5
		C3,55,18,70,36.5,70C55,70,70,55,70,36.5C70,18,55,3,36.5,3z"/>
</g>
<g>
	<path class="st0" d="M36.5,56.2C26.4,56.2,18.2,48,18.2,38h3c0,8,6.8,15.2,15.2,15.2c8.4,0,15.2-7.2,15.2-15.2h3
		C54.8,48,46.6,56.2,36.5,56.2z"/>
</g>
<g>
	<path class="st0" d="M27.8,32c-2.7,0-4.8-2.2-4.8-4.8s2.2-4.8,4.8-4.8s4.8,2.2,4.8,4.8S30.5,32,27.8,32z M27.8,25.3
		c-1,0-1.8,0.8-1.8,1.8s0.8,1.8,1.8,1.8c1,0,1.8-0.8,1.8-1.8S28.8,25.3,27.8,25.3z"/>
</g>
<g>
	<path class="st0" d="M43.8,32c-2.7,0-4.8-2.2-4.8-4.8s2.2-4.8,4.8-4.8s4.8,2.2,4.8,4.8S46.5,32,43.8,32z M43.8,25.3
		c-1,0-1.8,0.8-1.8,1.8s0.8,1.8,1.8,1.8s1.8-0.8,1.8-1.8S44.8,25.3,43.8,25.3z"/>
</g>
</svg>
