<?xml version="1.0" encoding="utf-8"?>
<!-- Generator: Adobe Illustrator 19.0.0, SVG Export Plug-In . SVG Version: 6.00 Build 0)  -->
<svg version="1.1" width="212" height="440" id="Слой_1" xmlns="http://www.w3.org/2000/svg" xmlns:xlink="http://www.w3.org/1999/xlink" x="0px" y="0px"
	 viewBox="0 0 212.5 439.7" style="enable-background:new 0 0 212.5 439.7;" xml:space="preserve">
<style type="text/css">
	.st0{opacity:0.6;}
	.st1{fill:#FFFFFF;}
</style>
<g class="st0">
	<path id="XMLID_26_" class="st1" d="M31.4,227.6L0,206.2l21.4-31.4l31.4,21.4L31.4,227.6z M6.9,204.9l23.2,15.7l15.7-23.2
		l-23.2-15.7L6.9,204.9z"/>
</g>
<g class="st0">
	<path id="XMLID_23_" class="st1" d="M192.7,168.3c-10.9,0-19.7-8.9-19.7-19.7s8.9-19.7,19.7-19.7c10.9,0,19.8,8.9,19.8,19.7
		S203.6,168.3,192.7,168.3z M192.7,133.8c-8.1,0-14.7,6.6-14.7,14.7s6.6,14.7,14.7,14.7s14.8-6.6,14.8-14.7S200.9,133.8,192.7,133.8
		z"/>
</g>
<g class="st0">
	
		<rect id="XMLID_22_" x="153.9" y="242.3" transform="matrix(0.832 0.5547 -0.5547 0.832 165.7255 -57.7791)" class="st1" width="48.7" height="5"/>
</g>
<g class="st0">
	<path id="XMLID_19_" class="st1" d="M109.6,439.7l-25.7-32.3l22.8-34.4l39.8,11.1l1.8,41.3L109.6,439.7z M90.1,407l21.2,26.7
		l31.9-11.9l-1.5-34l-32.8-9.1L90.1,407z"/>
</g>
<g class="st0">
	<path id="XMLID_16_" class="st1" d="M64.7,42.7L40.8,30.6l4.1-26.4L71.3,0l12.2,23.8L64.7,42.7z M46.3,27.8l17.4,8.8l13.7-13.8
		L68.5,5.5L49.3,8.6L46.3,27.8z"/>
</g>
</svg>
