<?xml version="1.0" encoding="utf-8"?>
<!-- Generator: Adobe Illustrator 19.0.0, SVG Export Plug-In . SVG Version: 6.00 Build 0)  -->
<svg version="1.1" width="269" height="591" id="Слой_1" xmlns="http://www.w3.org/2000/svg" xmlns:xlink="http://www.w3.org/1999/xlink" x="0px" y="0px"
	 viewBox="0 0 269.2 591.5" style="enable-background:new 0 0 269.2 591.5;" xml:space="preserve">
<style type="text/css">
	.st0{opacity:0.6;}
	.st1{fill:#FFFFFF;}
</style>
<g class="st0">
	<path id="XMLID_31_" class="st1" d="M95.5,245.5L71,200.7l44.7-24.5l24.5,44.7L95.5,245.5z M77.8,202.7l19.7,36l36-19.7l-19.7-36
		L77.8,202.7z"/>
</g>
<g class="st0">
	<path id="XMLID_28_" class="st1" d="M178.1,328.1v-55l49.1,28L178.1,328.1z M183.1,281.7v38L217,301L183.1,281.7z"/>
</g>
<g class="st0">
	<path id="XMLID_25_" class="st1" d="M19,396.2c-10.5,0-19-8.5-19-19s8.5-19,19-19s19,8.5,19,19S29.4,396.2,19,396.2z M19,362.7
		c-8,0-14.5,6.5-14.5,14.5S11,391.8,19,391.8s14.5-6.5,14.5-14.5S27,362.7,19,362.7z"/>
</g>
<g class="st0">
	<path id="XMLID_22_" class="st1" d="M255,591.5c-7.9,0-14.2-6.4-14.2-14.2S247.1,563,255,563c7.9,0,14.2,6.4,14.2,14.2
		S262.8,591.5,255,591.5z M255,568c-5.1,0-9.2,4.1-9.2,9.2s4.1,9.2,9.2,9.2c5.1,0,9.2-4.1,9.2-9.2S260.1,568,255,568z"/>
</g>
<g class="st0">
	<path id="XMLID_19_" class="st1" d="M158,28.5c-7.9,0-14.2-6.4-14.2-14.2S150.1,0,158,0s14.2,6.4,14.2,14.2S165.8,28.5,158,28.5z
		 M158,5c-5.1,0-9.2,4.1-9.2,9.2s4.1,9.2,9.2,9.2s9.2-4.1,9.2-9.2S163.1,5,158,5z"/>
</g>
<g class="st0">
	<path id="XMLID_16_" class="st1" d="M68.3,485.4l-21.4-26.9l19-28.7l33.1,9.2l1.5,34.4L68.3,485.4z M51.9,458.2l17.7,22.3l26.7-10
		l-1.2-28.5l-27.5-7.6L51.9,458.2z"/>
</g>
</svg>
