<?xml version="1.0" encoding="utf-8"?>
<!-- Generator: Adobe Illustrator 19.2.1, SVG Export Plug-In . SVG Version: 6.00 Build 0)  -->
<svg width="104" heught="52" version="1.1" id="Слой_1" xmlns="http://www.w3.org/2000/svg" xmlns:xlink="http://www.w3.org/1999/xlink" x="0px" y="0px"
	 viewBox="0 0 104.6 52.1" style="enable-background:new 0 0 104.6 52.1;" xml:space="preserve">
<style type="text/css">
	.st0{fill:#FFE94C;}
</style>
<g>
	<path class="st0" d="M0,0c0.1,28,23.5,52.1,52.3,52.1c28.8,0,52.2-24.1,52.3-52.1H0z M62.1,18.7l-7.7,4.6l-1.9-3.2l7.7-4.6
		L62.1,18.7z M55.5,8.6l1.9,3.2l-7.7,4.6l-1.9-3.2L55.5,8.6z M79.8,35.4c-0.3,0.3-0.4,0.4-1.3,0.5v0c0,0-0.1,0-0.2,0
		c-1.3,0.1-3.8,0.1-9.6,0.1c-0.3,0-0.6,0-0.9,0v0H35V36c-2.6,0-4.3,0-4.3,0c-1.8,0-3.6-1.4-3.6-3.2c0-0.4,0.3-1.6,0.3-1.6l8.8-24.3
		l1.7,0.6l0,0l1.7,0.6l0,0c1.8,0.8,3.8,0.1,4.7-1.6l3.2,1.6c-1.3,2.5-3.8,4-6.5,4c-0.9,0-1.8-0.2-2.7-0.5l-4.9,14.1
		c2.9,1.1,5,3.7,5.6,6.8h18.2c0.8-5.6,5.6-10,11.5-10c6.1,0,11.4,5.3,11.6,11.5l0,0.8L79.8,35.4z"/>
	<path class="st0" d="M68.7,26.2c-3.7,0-6.9,2.6-7.7,6.1c1.6,0,4.3,0,7.7,0c3.4,0,6,0,7.6,0C75.4,29.2,72.5,26.2,68.7,26.2z"/>
</g>
</svg>
