<?xml version="1.0" encoding="utf-8"?>
<!-- Generator: Adobe Illustrator 19.2.1, SVG Export Plug-In . SVG Version: 6.00 Build 0)  -->
<svg width="61" height="61" version="1.1" id="Слой_1" xmlns="http://www.w3.org/2000/svg" xmlns:xlink="http://www.w3.org/1999/xlink" x="0px" y="0px"
	 viewBox="0 0 61.5 61.5" style="enable-background:new 0 0 61.5 61.5;" xml:space="preserve">
<style type="text/css">
	.st0{fill:#FFE94C;}
</style>
<g>
	<polygon class="st0" points="22.1,33.8 33.7,38.6 36.2,33.3 24.5,28.5 	"/>
	<polygon class="st0" points="40,24.9 28.4,20.1 25.9,25.5 37.6,30.3 	"/>
	<path class="st0" d="M30.8,0C13.8,0,0,13.8,0,30.8C0,39.5,3.7,47.4,9.6,53L30.9,6.5L34,8l-4.2,9.2l11.7,4.8l4.9-10.6l3.1,1.4
		L27.1,61.3c1.2,0.1,2.4,0.2,3.6,0.2c17,0,30.8-13.8,30.8-30.8S47.7,0,30.8,0z"/>
	<polygon class="st0" points="18.2,42.2 29.9,47 32.3,41.6 20.7,36.9 	"/>
	<path class="st0" d="M12.2,55.3c3.4,2.6,7.3,4.4,11.6,5.4L28.5,50l-11.7-4.8L12.2,55.3z"/>
</g>
</svg>
