<svg id="Слой_1"  width="96" height="96" data-name="Слой 1" xmlns="http://www.w3.org/2000/svg" viewBox="0 0 96.33 96.33"><title>step-icon4-big</title><path d="M48.17,96.33A48.17,48.17,0,1,1,96.33,48.17,48.22,48.22,0,0,1,48.17,96.33ZM48.17,7A41.17,41.17,0,1,0,89.33,48.17,41.21,41.21,0,0,0,48.17,7Z" fill="#fff"/><path d="M55.29,27.58a6.38,6.38,0,1,1,6.38-6.37A6.38,6.38,0,0,1,55.29,27.58Zm0-8.75a2.38,2.38,0,1,0,2.38,2.38A2.38,2.38,0,0,0,55.29,18.83Z" fill="#fff"/><path d="M26.54,54.08A9.13,9.13,0,1,1,35.67,45,9.14,9.14,0,0,1,26.54,54.08Zm0-14.25A5.13,5.13,0,1,0,31.67,45,5.13,5.13,0,0,0,26.54,39.83Z" fill="#fff"/><path d="M37.79,76.33A6.38,6.38,0,1,1,44.17,70,6.38,6.38,0,0,1,37.79,76.33Zm0-8.75A2.38,2.38,0,1,0,40.17,70,2.38,2.38,0,0,0,37.79,67.58Z" fill="#fff"/><path d="M63.92,73.83a11,11,0,1,1,11-11A11,11,0,0,1,63.92,73.83Zm0-18a7,7,0,1,0,7,7A7,7,0,0,0,63.92,55.83Z" fill="#fff"/><path d="M68.67,46.58a7.25,7.25,0,1,1,7.25-7.25A7.26,7.26,0,0,1,68.67,46.58Zm0-10.5a3.25,3.25,0,1,0,3.25,3.25A3.25,3.25,0,0,0,68.67,36.08Z" fill="#fff"/></svg>