<?xml version="1.0" encoding="utf-8"?>
<!-- Generator: Adobe Illustrator 19.2.1, SVG Export Plug-In . SVG Version: 6.00 Build 0)  -->
<svg width="104" heught="52" version="1.1" id="Слой_1" xmlns="http://www.w3.org/2000/svg" xmlns:xlink="http://www.w3.org/1999/xlink" x="0px" y="0px"
	 viewBox="0 0 104.6 52.1" style="enable-background:new 0 0 104.6 52.1;" xml:space="preserve">
<style type="text/css">
	.st0{fill:#FFE94C;}
</style>
<g>
	<path class="st0" d="M63,33.8l-6-8.4l-3.1,3.1l-4-4.3L47.2,29l-0.1-0.1l-7.7,13.5l-5-6L28.1,46c7.2,3.9,15.4,6.1,24.2,6.1
		c8.8,0,17.1-2.3,24.4-6.2L67,29.6L63,33.8z"/>
	<polygon class="st0" points="42.5,23.8 36.4,33.3 38.8,36.2 44.6,26.1 	"/>
	<path class="st0" d="M0,0c0.1,18.1,9.9,34.6,24.6,44l17.3-26.9l4.4,4.9L56.5,3.5l23.7,40.3C94.8,34.4,104.5,18,104.6,0H0z"/>
	<polygon class="st0" points="57.4,19.9 63.4,28.3 65.2,26.4 56.6,11.8 51.6,20.8 54,23.3 	"/>
</g>
</svg>
