<?xml version="1.0" encoding="utf-8"?>
<!-- Generator: Adobe Illustrator 19.0.0, SVG Export Plug-In . SVG Version: 6.00 Build 0)  -->
<svg version="1.1" width="355" height="355" id="Слой_1" xmlns="http://www.w3.org/2000/svg" xmlns:xlink="http://www.w3.org/1999/xlink" x="0px" y="0px"
	 viewBox="0 0 354.5 355.3" style="enable-background:new 0 0 354.5 355.3;" xml:space="preserve">
<style type="text/css">
	.st0{opacity:0.5;}
	.st1{fill:#FFFFFF;}
	.st2{opacity:0.1;}
	.st3{opacity:0.3;}
	.st4{fill:#FEE84B;}
</style>
<g id="Сонце_та_степи">
	<g class="st0">
		<path class="st1" d="M12.9,13.1c0.1,0,0.2,0,0.3,0c0.1,0,0.2,0.1,0.3,0.2l1.5,1.6c-0.6,0.8-1.5,1.5-2.4,1.9
			c-1,0.4-2.1,0.6-3.4,0.6c-1.2,0-2.3-0.2-3.3-0.6s-1.8-1-2.5-1.7s-1.2-1.6-1.5-2.6c-0.4-1-0.5-2.1-0.5-3.3c0-1.2,0.2-2.3,0.6-3.3
			c0.4-1,0.9-1.9,1.6-2.6c0.7-0.7,1.5-1.3,2.5-1.7C6.9,1.2,8,1,9.2,1c0.6,0,1.2,0.1,1.7,0.2c0.5,0.1,1,0.3,1.5,0.4
			c0.5,0.2,0.9,0.4,1.3,0.7c0.4,0.3,0.7,0.5,1,0.9l-1.3,1.7c-0.1,0.1-0.2,0.2-0.3,0.3c-0.1,0.1-0.3,0.1-0.5,0.1
			c-0.1,0-0.3,0-0.4-0.1C12.2,5.1,12,5.1,11.9,5c-0.1-0.1-0.3-0.2-0.4-0.3c-0.2-0.1-0.3-0.2-0.6-0.3c-0.2-0.1-0.5-0.2-0.8-0.2
			s-0.6-0.1-1-0.1C8.5,4.1,8,4.2,7.5,4.5S6.5,5,6.1,5.5c-0.4,0.4-0.7,1-0.9,1.6S5,8.4,5,9.2c0,0.8,0.1,1.6,0.3,2.2s0.5,1.2,0.9,1.6
			c0.4,0.4,0.8,0.8,1.3,1c0.5,0.2,1.1,0.3,1.6,0.3c0.3,0,0.6,0,0.9,0c0.3,0,0.5-0.1,0.8-0.2s0.5-0.2,0.7-0.3
			c0.2-0.1,0.4-0.3,0.6-0.5c0.1-0.1,0.2-0.1,0.3-0.2C12.6,13.1,12.7,13.1,12.9,13.1z"/>
		<path class="st1" d="M27.6,8.3h-3.8v9h-3.4v-9h-3.8V5.8h11V8.3z"/>
		<path class="st1" d="M33.9,12.2c0.1,1,0.4,1.6,0.9,2.1c0.5,0.4,1.1,0.6,1.8,0.6c0.4,0,0.7,0,1-0.1c0.3-0.1,0.5-0.2,0.8-0.3
			s0.4-0.2,0.6-0.3c0.2-0.1,0.4-0.1,0.6-0.1c0.3,0,0.5,0.1,0.6,0.3l1,1.2c-0.4,0.4-0.7,0.7-1.1,1s-0.8,0.5-1.3,0.6
			c-0.4,0.1-0.9,0.2-1.3,0.3c-0.4,0.1-0.8,0.1-1.2,0.1c-0.8,0-1.5-0.1-2.2-0.4c-0.7-0.3-1.3-0.6-1.8-1.2c-0.5-0.5-0.9-1.2-1.2-1.9
			s-0.5-1.7-0.5-2.7c0-0.8,0.1-1.5,0.4-2.2c0.3-0.7,0.6-1.3,1.1-1.8c0.5-0.5,1.1-0.9,1.8-1.2s1.5-0.5,2.3-0.5c0.8,0,1.4,0.1,2.1,0.4
			c0.6,0.2,1.2,0.6,1.6,1c0.5,0.4,0.8,1,1.1,1.6s0.4,1.4,0.4,2.2c0,0.3,0,0.5,0,0.6c0,0.2-0.1,0.3-0.1,0.4c-0.1,0.1-0.1,0.2-0.2,0.2
			c-0.1,0-0.2,0.1-0.4,0.1H33.9z M38.2,10.2c0-0.3,0-0.5-0.1-0.8s-0.2-0.5-0.3-0.7c-0.2-0.2-0.4-0.4-0.6-0.5C36.9,8.1,36.5,8,36.2,8
			c-0.6,0-1.2,0.2-1.5,0.6c-0.4,0.4-0.6,0.9-0.7,1.6H38.2z"/>
		<path class="st1" d="M55.5,17.3h-3.4v-9h-3.5v9h-3.4V5.8h10.3V17.3z"/>
	</g>
	<g class="st0">
		<path class="st1" d="M311.9,13.1c0.1,0,0.2,0,0.3,0c0.1,0,0.2,0.1,0.3,0.2l1.5,1.6c-0.6,0.8-1.5,1.5-2.4,1.9
			c-1,0.4-2.1,0.6-3.4,0.6c-1.2,0-2.3-0.2-3.3-0.6c-1-0.4-1.8-1-2.5-1.7s-1.2-1.6-1.5-2.6c-0.4-1-0.5-2.1-0.5-3.3
			c0-1.2,0.2-2.3,0.6-3.3s0.9-1.9,1.6-2.6c0.7-0.7,1.5-1.3,2.5-1.7c1-0.4,2.1-0.6,3.2-0.6c0.6,0,1.2,0.1,1.7,0.2
			c0.5,0.1,1,0.3,1.5,0.4c0.5,0.2,0.9,0.4,1.3,0.7c0.4,0.3,0.7,0.5,1,0.9l-1.3,1.7c-0.1,0.1-0.2,0.2-0.3,0.3
			c-0.1,0.1-0.3,0.1-0.5,0.1c-0.1,0-0.3,0-0.4-0.1c-0.1-0.1-0.2-0.1-0.4-0.2c-0.1-0.1-0.3-0.2-0.4-0.3c-0.2-0.1-0.3-0.2-0.6-0.3
			c-0.2-0.1-0.5-0.2-0.8-0.2c-0.3-0.1-0.6-0.1-1-0.1c-0.6,0-1.2,0.1-1.7,0.3s-0.9,0.6-1.3,1c-0.4,0.4-0.7,1-0.9,1.6
			c-0.2,0.6-0.3,1.4-0.3,2.2c0,0.8,0.1,1.6,0.3,2.2s0.5,1.2,0.9,1.6c0.4,0.4,0.8,0.8,1.3,1c0.5,0.2,1.1,0.3,1.6,0.3
			c0.3,0,0.6,0,0.9,0s0.5-0.1,0.8-0.2s0.5-0.2,0.7-0.3c0.2-0.1,0.4-0.3,0.6-0.5c0.1-0.1,0.2-0.1,0.3-0.2
			C311.6,13.1,311.7,13.1,311.9,13.1z"/>
		<path class="st1" d="M326.6,8.3h-3.8v9h-3.4v-9h-3.8V5.8h11V8.3z"/>
		<path class="st1" d="M332.9,12.2c0.1,1,0.4,1.6,0.9,2.1c0.5,0.4,1.1,0.6,1.8,0.6c0.4,0,0.7,0,1-0.1c0.3-0.1,0.5-0.2,0.8-0.3
			c0.2-0.1,0.4-0.2,0.6-0.3c0.2-0.1,0.4-0.1,0.6-0.1c0.3,0,0.5,0.1,0.6,0.3l1,1.2c-0.4,0.4-0.7,0.7-1.1,1c-0.4,0.3-0.8,0.5-1.3,0.6
			c-0.4,0.1-0.9,0.2-1.3,0.3c-0.4,0.1-0.8,0.1-1.2,0.1c-0.8,0-1.5-0.1-2.2-0.4c-0.7-0.3-1.3-0.6-1.8-1.2c-0.5-0.5-0.9-1.2-1.2-1.9
			s-0.5-1.7-0.5-2.7c0-0.8,0.1-1.5,0.4-2.2c0.3-0.7,0.6-1.3,1.1-1.8c0.5-0.5,1.1-0.9,1.8-1.2s1.5-0.5,2.3-0.5c0.8,0,1.4,0.1,2.1,0.4
			c0.6,0.2,1.2,0.6,1.6,1c0.5,0.4,0.8,1,1.1,1.6c0.3,0.6,0.4,1.4,0.4,2.2c0,0.3,0,0.5,0,0.6c0,0.2-0.1,0.3-0.1,0.4
			c-0.1,0.1-0.1,0.2-0.2,0.2c-0.1,0-0.2,0.1-0.4,0.1H332.9z M337.2,10.2c0-0.3,0-0.5-0.1-0.8c-0.1-0.3-0.2-0.5-0.3-0.7
			c-0.2-0.2-0.4-0.4-0.6-0.5S335.5,8,335.2,8c-0.6,0-1.2,0.2-1.5,0.6c-0.4,0.4-0.6,0.9-0.7,1.6H337.2z"/>
		<path class="st1" d="M354.5,17.3h-3.4v-9h-3.5v9h-3.4V5.8h10.3V17.3z"/>
	</g>
	<g class="st0">
		<path class="st1" d="M311.5,350.9c0.1,0,0.2,0,0.3,0s0.2,0.1,0.3,0.2l1.5,1.6c-0.6,0.8-1.5,1.5-2.4,1.9c-1,0.4-2.1,0.6-3.4,0.6
			c-1.2,0-2.3-0.2-3.3-0.6s-1.8-1-2.5-1.7c-0.7-0.7-1.2-1.6-1.5-2.6s-0.5-2.1-0.5-3.3c0-1.2,0.2-2.3,0.6-3.3s0.9-1.9,1.6-2.6
			c0.7-0.7,1.5-1.3,2.5-1.7s2.1-0.6,3.2-0.6c0.6,0,1.2,0.1,1.7,0.2c0.5,0.1,1,0.3,1.5,0.4c0.5,0.2,0.9,0.4,1.3,0.7
			c0.4,0.3,0.7,0.5,1,0.9l-1.3,1.7c-0.1,0.1-0.2,0.2-0.3,0.3c-0.1,0.1-0.3,0.1-0.5,0.1c-0.1,0-0.3,0-0.4-0.1
			c-0.1-0.1-0.2-0.1-0.4-0.2c-0.1-0.1-0.3-0.2-0.4-0.3c-0.2-0.1-0.3-0.2-0.6-0.3c-0.2-0.1-0.5-0.2-0.8-0.2c-0.3-0.1-0.6-0.1-1-0.1
			c-0.6,0-1.2,0.1-1.7,0.3s-0.9,0.6-1.3,1c-0.4,0.4-0.7,1-0.9,1.6s-0.3,1.4-0.3,2.2c0,0.8,0.1,1.6,0.3,2.2c0.2,0.6,0.5,1.2,0.9,1.6
			c0.4,0.4,0.8,0.8,1.3,1c0.5,0.2,1.1,0.3,1.7,0.3c0.3,0,0.6,0,0.9,0c0.3,0,0.5-0.1,0.8-0.2s0.5-0.2,0.7-0.3
			c0.2-0.1,0.4-0.3,0.7-0.5c0.1-0.1,0.2-0.1,0.3-0.2C311.2,351,311.3,350.9,311.5,350.9z"/>
		<path class="st1" d="M326.2,346.1h-3.8v9H319v-9h-3.8v-2.4h11V346.1z"/>
		<path class="st1" d="M332.5,350c0.1,1,0.4,1.6,0.9,2.1s1.1,0.6,1.8,0.6c0.4,0,0.7,0,1-0.1c0.3-0.1,0.5-0.2,0.8-0.3
			c0.2-0.1,0.4-0.2,0.6-0.3c0.2-0.1,0.4-0.1,0.6-0.1c0.3,0,0.5,0.1,0.6,0.3l1,1.2c-0.4,0.4-0.7,0.7-1.1,1c-0.4,0.3-0.8,0.5-1.3,0.6
			c-0.4,0.1-0.9,0.2-1.3,0.3c-0.4,0.1-0.8,0.1-1.2,0.1c-0.8,0-1.5-0.1-2.2-0.4c-0.7-0.3-1.3-0.6-1.8-1.2c-0.5-0.5-0.9-1.2-1.2-1.9
			s-0.5-1.7-0.5-2.7c0-0.8,0.1-1.5,0.4-2.2c0.3-0.7,0.6-1.3,1.1-1.8c0.5-0.5,1.1-0.9,1.8-1.2c0.7-0.3,1.5-0.5,2.3-0.5
			c0.8,0,1.4,0.1,2.1,0.4c0.6,0.2,1.2,0.6,1.6,1c0.5,0.4,0.8,1,1.1,1.6c0.3,0.6,0.4,1.4,0.4,2.2c0,0.3,0,0.5,0,0.6
			c0,0.2-0.1,0.3-0.1,0.4c-0.1,0.1-0.1,0.2-0.2,0.2c-0.1,0-0.2,0.1-0.4,0.1H332.5z M336.8,348c0-0.3,0-0.5-0.1-0.8
			c-0.1-0.3-0.2-0.5-0.3-0.7c-0.2-0.2-0.4-0.4-0.6-0.5c-0.3-0.1-0.6-0.2-0.9-0.2c-0.6,0-1.2,0.2-1.5,0.6c-0.4,0.4-0.6,0.9-0.7,1.6
			H336.8z"/>
		<path class="st1" d="M354.1,355.1h-3.4v-9h-3.5v9h-3.4v-11.4h10.3V355.1z"/>
	</g>
	<g class="st0">
		<path class="st1" d="M11.7,350.6c0.1,0,0.2,0,0.3,0s0.2,0.1,0.3,0.2l1.5,1.6c-0.6,0.8-1.5,1.5-2.4,1.9c-1,0.4-2.1,0.6-3.4,0.6
			c-1.2,0-2.3-0.2-3.3-0.6c-1-0.4-1.8-1-2.5-1.7S0.9,351,0.5,350S0,347.9,0,346.7c0-1.2,0.2-2.3,0.6-3.3s0.9-1.9,1.6-2.6
			c0.7-0.7,1.5-1.3,2.5-1.7s2.1-0.6,3.2-0.6c0.6,0,1.2,0.1,1.7,0.2c0.5,0.1,1,0.3,1.5,0.4c0.5,0.2,0.9,0.4,1.3,0.7
			c0.4,0.3,0.7,0.5,1,0.9l-1.3,1.7c-0.1,0.1-0.2,0.2-0.3,0.3c-0.1,0.1-0.3,0.1-0.5,0.1c-0.1,0-0.3,0-0.4-0.1
			c-0.1-0.1-0.2-0.1-0.4-0.2s-0.3-0.2-0.4-0.3c-0.2-0.1-0.3-0.2-0.6-0.3c-0.2-0.1-0.5-0.2-0.8-0.2s-0.6-0.1-1-0.1
			c-0.6,0-1.2,0.1-1.7,0.3s-0.9,0.6-1.3,1c-0.4,0.4-0.7,1-0.9,1.6c-0.2,0.6-0.3,1.4-0.3,2.2c0,0.8,0.1,1.6,0.3,2.2s0.5,1.2,0.9,1.6
			c0.4,0.4,0.8,0.8,1.3,1c0.5,0.2,1.1,0.3,1.7,0.3c0.3,0,0.6,0,0.9,0c0.3,0,0.5-0.1,0.8-0.2s0.5-0.2,0.7-0.3
			c0.2-0.1,0.4-0.3,0.6-0.5c0.1-0.1,0.2-0.1,0.3-0.2S11.6,350.6,11.7,350.6z"/>
		<path class="st1" d="M26.4,345.8h-3.8v9h-3.4v-9h-3.8v-2.4h11V345.8z"/>
		<path class="st1" d="M32.7,349.7c0.1,1,0.4,1.6,0.9,2.1c0.5,0.4,1.1,0.6,1.8,0.6c0.4,0,0.7,0,1-0.1c0.3-0.1,0.5-0.2,0.8-0.3
			s0.4-0.2,0.6-0.3c0.2-0.1,0.4-0.1,0.6-0.1c0.3,0,0.5,0.1,0.6,0.3l1,1.2c-0.4,0.4-0.7,0.7-1.1,1s-0.8,0.5-1.3,0.6
			c-0.4,0.1-0.9,0.2-1.3,0.3c-0.4,0.1-0.8,0.1-1.2,0.1c-0.8,0-1.5-0.1-2.2-0.4c-0.7-0.3-1.3-0.6-1.8-1.2c-0.5-0.5-0.9-1.2-1.2-1.9
			c-0.3-0.8-0.5-1.7-0.5-2.7c0-0.8,0.1-1.5,0.4-2.2c0.3-0.7,0.6-1.3,1.1-1.8c0.5-0.5,1.1-0.9,1.8-1.2c0.7-0.3,1.5-0.5,2.3-0.5
			c0.8,0,1.4,0.1,2.1,0.4c0.6,0.2,1.2,0.6,1.6,1c0.5,0.4,0.8,1,1.1,1.6s0.4,1.4,0.4,2.2c0,0.3,0,0.5,0,0.6c0,0.2-0.1,0.3-0.1,0.4
			c-0.1,0.1-0.1,0.2-0.2,0.2c-0.1,0-0.2,0.1-0.4,0.1H32.7z M37,347.7c0-0.3,0-0.5-0.1-0.8s-0.2-0.5-0.3-0.7
			c-0.2-0.2-0.4-0.4-0.6-0.5s-0.6-0.2-0.9-0.2c-0.6,0-1.2,0.2-1.5,0.6c-0.4,0.4-0.6,0.9-0.7,1.6H37z"/>
		<path class="st1" d="M54.4,354.8H51v-9h-3.5v9H44v-11.4h10.3V354.8z"/>
	</g>
	<g id="маленьке_сіре_коло_3_" class="st2">
		<path class="st1" d="M55,323.3c-13.5,0-24.4-11-24.4-24.4c0-13.5,11-24.4,24.4-24.4c13.5,0,24.4,11,24.4,24.4
			C79.4,312.4,68.4,323.3,55,323.3z M55,284.5c-8,0-14.4,6.5-14.4,14.4c0,8,6.5,14.4,14.4,14.4s14.4-6.5,14.4-14.4
			C69.4,290.9,62.9,284.5,55,284.5z"/>
	</g>
	<g id="маленьке_сіре_коло_2_" class="st2">
		<path class="st1" d="M299,323.7c-13.5,0-24.4-11-24.4-24.4c0-13.5,11-24.4,24.4-24.4c13.5,0,24.4,11,24.4,24.4
			C323.5,312.7,312.5,323.7,299,323.7z M299,284.8c-8,0-14.4,6.5-14.4,14.4s6.5,14.4,14.4,14.4c8,0,14.4-6.5,14.4-14.4
			S307,284.8,299,284.8z"/>
	</g>
	<g id="маленьке_сіре_коло_1_" class="st2">
		<path class="st1" d="M298.4,80.2c-13.5,0-24.4-11-24.4-24.4c0-13.5,11-24.4,24.4-24.4c13.5,0,24.4,11,24.4,24.4
			C322.8,69.2,311.9,80.2,298.4,80.2z M298.4,41.3c-8,0-14.4,6.5-14.4,14.4s6.5,14.4,14.4,14.4c8,0,14.4-6.5,14.4-14.4
			S306.4,41.3,298.4,41.3z"/>
	</g>
	<g id="маленьке_сіре_коло" class="st2">
		<path class="st1" d="M55.4,80.2c-13.5,0-24.4-11-24.4-24.4c0-13.5,11-24.4,24.4-24.4c13.5,0,24.4,11,24.4,24.4
			C79.8,69.2,68.9,80.2,55.4,80.2z M55.4,41.3c-8,0-14.4,6.5-14.4,14.4s6.5,14.4,14.4,14.4c8,0,14.4-6.5,14.4-14.4
			S63.4,41.3,55.4,41.3z"/>
	</g>
	<g id="жовте_коло" class="st3">
		<path class="st4" d="M177.5,255.7c-43.4,0-78.7-35.3-78.7-78.7c0-43.4,35.3-78.7,78.7-78.7c43.4,0,78.7,35.3,78.7,78.7
			C256.1,220.4,220.8,255.7,177.5,255.7z M177.5,108.3c-37.9,0-68.7,30.8-68.7,68.7s30.8,68.7,68.7,68.7c37.9,0,68.7-30.8,68.7-68.7
			S215.3,108.3,177.5,108.3z"/>
	</g>
	<g id="сонце">
		<circle class="st4" cx="177.5" cy="177" r="55.7"/>
	</g>
	<g id="велике_сіре_коло" class="st2">
		<path class="st1" d="M177.5,354c-97.6,0-177-79.4-177-177c0-97.6,79.4-177,177-177c97.6,0,177,79.4,177,177
			C354.4,274.6,275,354,177.5,354z M177.5,10c-92.1,0-167,74.9-167,167c0,92.1,74.9,167,167,167c92.1,0,167-74.9,167-167
			C344.4,84.9,269.5,10,177.5,10z"/>
	</g>
</g>
</svg>
