<?xml version="1.0" encoding="utf-8"?>
<!-- Generator: Adobe Illustrator 19.2.1, SVG Export Plug-In . SVG Version: 6.00 Build 0)  -->
<svg width="61" height="61" version="1.1" id="Слой_1" xmlns="http://www.w3.org/2000/svg" xmlns:xlink="http://www.w3.org/1999/xlink" x="0px" y="0px"
	 viewBox="0 0 61.5 61.5" style="enable-background:new 0 0 61.5 61.5;" xml:space="preserve">
<style type="text/css">
	.st0{fill:#FFE94C;}
</style>
<g>
	<polygon class="st0" points="31.4,26.6 34.5,23.5 39.9,31 41.5,29.4 33.8,16.2 29.3,24.4 	"/>
	<path class="st0" d="M20.6,21l4,4.4l9.1-16.6l22.8,38.8c3.2-4.8,5-10.6,5-16.8C61.5,13.8,47.7,0,30.8,0C13.8,0,0,13.8,0,30.8
		c0,5.7,1.6,11,4.3,15.6L20.6,21z"/>
	<polygon class="st0" points="17.8,38.2 23,29.1 21.1,27 15.6,35.5 	"/>
	<path class="st0" d="M43.2,32.2L39.5,36l-5.4-7.5l-2.8,2.8l-3.6-3.9l-2.4,4.3l-0.1-0.1l-6.9,12.2l-4.5-5.4L6.5,49.6
		c5.6,7.2,14.4,11.9,24.2,11.9c9.3,0,17.7-4.2,23.3-10.7L43.2,32.2z"/>
</g>
</svg>
