<?xml version="1.0" encoding="utf-8"?>
<!-- Generator: Adobe Illustrator 19.2.1, SVG Export Plug-In . SVG Version: 6.00 Build 0)  -->
<svg version="1.1" id="Слой_1" width="141px" height="100px" xmlns="http://www.w3.org/2000/svg" xmlns:xlink="http://www.w3.org/1999/xlink" x="0px" y="0px"
	 viewBox="0 0 142 99.3" style="enable-background:new 0 0 142 99.3;" xml:space="preserve">
<style type="text/css">
	.st0{fill:#FFFFFF;}
</style>
<path class="st0" d="M142,91.3L88.4,0L69.8,34l-8.2-9L27.3,78.2L16.8,61.6L0,88.7c1.1,2.8,2.3,5.6,3.7,8.3l6.6-10.7l4.9,5.9l6.4-8.7
	l5.5,8.8l21.3-32.9L56.8,71l20.4-34.9l7,7.1l4.5-4.6l11.1,14.5l6.9-6.9L138,99.3C139.4,96.7,140.8,94,142,91.3z M15.1,86l-2.6-3.2
	l4.4-7l2.6,4.2L15.1,86z M56.5,64l-5.8-8.1l12-18.5l5.6,6.1L56.5,64z M100.3,47.4L89.1,32.8l-4.8,4.9l-5.1-5.2l9.5-17.3l16.2,27.6
	L100.3,47.4z"/>
</svg>
