<?xml version="1.0" encoding="utf-8"?>
<!-- Generator: Adobe Illustrator 19.2.1, SVG Export Plug-In . SVG Version: 6.00 Build 0)  -->
<svg width="61" height="61" version="1.1" id="Слой_1" xmlns="http://www.w3.org/2000/svg" xmlns:xlink="http://www.w3.org/1999/xlink" x="0px" y="0px"
	 viewBox="0 0 61.5 61.5" style="enable-background:new 0 0 61.5 61.5;" xml:space="preserve">
<style type="text/css">
	.st0{fill:#FFE94C;}
</style>
<g>
	<circle class="st0" cx="22.3" cy="29.8" r="1.7"/>
	<ellipse class="st0" cx="37.3" cy="30.9" rx="3.4" ry="3.4"/>
	<circle class="st0" cx="28.8" cy="21.4" r="1.1"/>
	<circle class="st0" cx="27.7" cy="38.4" r="1"/>
	<path class="st0" d="M30.8,15.4c-8.5,0-15.4,6.9-15.4,15.4c0,8.5,6.9,15.4,15.4,15.4c8.5,0,15.4-6.9,15.4-15.4
		C46.1,22.3,39.2,15.4,30.8,15.4z M18.2,29.8c0-2.3,1.9-4.1,4.1-4.1c2.3,0,4.1,1.9,4.1,4.1s-1.9,4.1-4.1,4.1
		C20,33.9,18.2,32.1,18.2,29.8z M27.7,41.8c-1.9,0-3.4-1.5-3.4-3.4s1.5-3.4,3.4-3.4c1.9,0,3.4,1.5,3.4,3.4S29.5,41.8,27.7,41.8z
		 M28.8,25c-2,0-3.6-1.6-3.6-3.6c0-2,1.6-3.6,3.6-3.6c2,0,3.6,1.6,3.6,3.6C32.3,23.4,30.7,25,28.8,25z M37.3,36.8
		c-3.3,0-5.9-2.6-5.9-5.9c0-3.3,2.6-5.9,5.9-5.9c3.3,0,5.9,2.6,5.9,5.9C43.2,34.1,40.5,36.8,37.3,36.8z"/>
	<path class="st0" d="M30.8,0C13.8,0,0,13.8,0,30.8s13.8,30.8,30.8,30.8c17,0,30.7-13.8,30.7-30.8S47.7,0,30.8,0z M30.8,49.7
		c-10.4,0-18.9-8.5-18.9-18.9s8.5-18.9,18.9-18.9c10.4,0,18.9,8.5,18.9,18.9S41.2,49.7,30.8,49.7z"/>
</g>
</svg>
