<?xml version="1.0" encoding="utf-8"?>
<!-- Generator: Adobe Illustrator 19.2.1, SVG Export Plug-In . SVG Version: 6.00 Build 0)  -->
<svg  width="104" heught="52" version="1.1" id="Слой_1" xmlns="http://www.w3.org/2000/svg" xmlns:xlink="http://www.w3.org/1999/xlink" x="0px" y="0px"
	 viewBox="0 0 104.6 52.1" style="enable-background:new 0 0 104.6 52.1;" xml:space="preserve">
<style type="text/css">
	.st0{fill:#FFE94C;}
</style>
<g>
	<path class="st0" d="M33.8,48.6c4.4,1.7,9.1,2.8,14,3.2l2.6-5.8l-13-5.3L33.8,48.6z"/>
	<path class="st0" d="M0,0c0.1,20.4,12.5,38.7,30.4,47.2L52,0H0z"/>
	<polygon class="st0" points="39,37.4 52,42.7 54.7,36.7 41.7,31.4 	"/>
	<path class="st0" d="M56.2,0l-4.3,9.4l13,5.3L70.3,3l3.4,1.6L51.9,52.1c0.1,0,0.2,0,0.4,0c28.8,0,52.2-24.1,52.3-52.1H56.2z"/>
	<polygon class="st0" points="63.3,18.1 50.3,12.8 47.6,18.7 60.6,24.1 	"/>
	<polygon class="st0" points="59,27.4 46,22.1 43.3,28.1 56.3,33.4 	"/>
</g>
</svg>
