<?xml version="1.0" encoding="utf-8"?>
<!-- Generator: Adobe Illustrator 19.2.1, SVG Export Plug-In . SVG Version: 6.00 Build 0)  -->
<svg version="1.1" width="153" height="153" id="Слой_1" xmlns="http://www.w3.org/2000/svg" xmlns:xlink="http://www.w3.org/1999/xlink" x="0px" y="0px"
	 viewBox="0 0 153.2 153.2" style="enable-background:new 0 0 153.2 153.2;" xml:space="preserve">
<style type="text/css">
	.st0{fill:#FEE84B;}
	.st1{fill:#FFFFFF;}
</style>
<g id="ілюстрація">
	<circle class="st0" cx="76.6" cy="76.6" r="76.6"/>
	<g>
		<g>
			<path class="st1" d="M112.6,105.9c-5.5,0-10.7,0-14.5-0.1c-2,0-3.7,0-4.8-0.1c-1.7,0-5.7-0.2-5.7-4.1c0-13.8,11.2-25,25-25
				c13.1,0,24.6,11.4,25,24.9l0.1,1.7l-1.2,1.2C135.1,105.9,135.1,105.9,112.6,105.9z M96.1,97.8c3.5,0.1,9.2,0.1,16.6,0.1
				c7.2,0,12.8,0,16.4-0.1c-2-6.8-8.2-13.2-16.4-13.2C104.6,84.6,97.8,90.3,96.1,97.8z"/>
		</g>
		<g>
			<rect x="78.2" y="66" transform="matrix(0.8576 -0.5144 0.5144 0.8576 -23.4537 55.2154)" class="st1" width="19.4" height="8"/>
		</g>
		<g>
			<rect x="68.2" y="51" transform="matrix(0.8575 -0.5145 0.5145 0.8575 -17.163 47.945)" class="st1" width="19.4" height="8"/>
		</g>
		<path class="st1" d="M132,102.1H48.9c0-1,0-0.7,0-0.9c0-9.6-7.2-17.7-16.6-18.8l13.8-38.2l-3.8-1.4l-19,52.5c0,0-0.7,2.7-0.7,3.5
			c0,3.9,3.1,7,7,7c0.7,0,102.2-0.1,102.2-0.1V102.1z"/>
		<g>
			<path class="st1" d="M53.6,51.9c-0.5,0-1.1,0-1.6-0.1c-3.6-0.4-6.8-2.2-9-5.1l3.1-2.5c1.6,2,3.8,3.3,6.3,3.6c2.5,0.3,5-0.4,7-1.9
				l2.5,3.1C59.4,50.9,56.6,51.9,53.6,51.9z"/>
		</g>
	</g>
</g>
</svg>
