<?xml version="1.0" encoding="utf-8"?>
<!-- Generator: Adobe Illustrator 19.2.1, SVG Export Plug-In . SVG Version: 6.00 Build 0)  -->
<svg version="1.1" width="40px" height="49px" id="Слой_1" xmlns="http://www.w3.org/2000/svg" xmlns:xlink="http://www.w3.org/1999/xlink" x="0px" y="0px"
	 viewBox="0 0 40.4 48.8" style="enable-background:new 0 0 40.4 48.8;" xml:space="preserve">
<style type="text/css">
	.st0{fill:#FFFFFF;}
</style>
<path class="st0" d="M31.7,16.9l-12.3-5l4.8-10.4L20.9,0L0,45.5c1.1,0.4,2.2,0.8,3.4,1.1l3-6.6l12.3,5L17,48.8c0.5,0,1,0,1.4,0
	c0.8,0,1.7,0,2.5-0.1L40.4,6.5L37.1,5L31.7,16.9z M19.5,43.4l-12.3-5l3.3-7.3l12.3,5L19.5,43.4z M23.6,34.5l-12.3-5l3.3-7.2l12.3,5
	L23.6,34.5z M27.6,25.7l-12.3-5l3.3-7.2l12.3,5L27.6,25.7z"/>
</svg>
