<?xml version="1.0" encoding="utf-8"?>
<!-- Generator: Adobe Illustrator 19.2.1, SVG Export Plug-In . SVG Version: 6.00 Build 0)  -->
<svg width="61" height="61" version="1.1" id="Слой_1" xmlns="http://www.w3.org/2000/svg" xmlns:xlink="http://www.w3.org/1999/xlink" x="0px" y="0px"
	 viewBox="0 0 61.5 61.5" style="enable-background:new 0 0 61.5 61.5;" xml:space="preserve">
<style type="text/css">
	.st0{fill:#FFE94C;}
</style>
<g>
	<path class="st0" d="M45.5,33.1c-3.4,0-6.2,2.3-6.9,5.5c1.5,0,3.8,0,6.9,0c3,0,5.4,0,6.8,0C51.5,35.7,48.9,33.1,45.5,33.1z"/>
	<path class="st0" d="M30.8,0C13.8,0,0,13.8,0,30.8s13.8,30.8,30.8,30.8s30.8-13.8,30.8-30.8S47.7,0,30.8,0z M39.5,26.3l-6.9,4.2
		l-1.7-2.9l6.9-4.2L39.5,26.3z M33.6,17.2l1.7,2.9l-6.9,4.2l-1.7-2.9L33.6,17.2z M54.2,41.8L54.2,41.8c0,0-0.1,0-0.2,0
		c-1.1,0.1-3.4,0.1-8.6,0.1c-0.3,0-0.6,0-0.8,0v0H15.2v-0.1c-2.4,0-3.8,0-3.9,0C9.7,41.9,8,40.6,8,39c0-0.3,0.3-1.5,0.3-1.5
		l7.9-21.8l1.6,0.6l0,0l1.5,0.5l0,0c1.6,0.7,3.5,0.1,4.2-1.5l2.9,1.5c-1.1,2.3-3.4,3.6-5.8,3.6c-0.8,0-1.6-0.2-2.4-0.5l-4.4,12.7
		c2.6,1,4.5,3.3,5,6.1h16.4c0.7-5,5.1-8.9,10.3-8.9c5.5,0,10.2,4.7,10.4,10.4l0,0.7l-0.5,0.5C55.2,41.6,55,41.7,54.2,41.8z"/>
</g>
</svg>
