<?xml version="1.0" encoding="utf-8"?>
<!-- Generator: Adobe Illustrator 19.2.1, SVG Export Plug-In . SVG Version: 6.00 Build 0)  -->
<svg width="104" heught="52" version="1.1" id="Слой_1" xmlns="http://www.w3.org/2000/svg" xmlns:xlink="http://www.w3.org/1999/xlink" x="0px" y="0px"
	 viewBox="0 0 104.6 52.1" style="enable-background:new 0 0 104.6 52.1;" xml:space="preserve">
<style type="text/css">
	.st0{fill:#FFE94C;}
</style>
<g>
	<circle class="st0" cx="50.1" cy="14.2" r="1.3"/>
	<ellipse class="st0" cx="59.6" cy="24.8" rx="3.8" ry="3.8"/>
	<circle class="st0" cx="48.9" cy="33.1" r="1.1"/>
	<circle class="st0" cx="42.9" cy="23.5" r="1.9"/>
	<path class="st0" d="M52.3,7.5c-9.4,0-17.1,7.7-17.1,17.1c0,9.4,7.7,17.1,17.1,17.1s17.1-7.7,17.1-17.1
		C69.4,15.2,61.7,7.5,52.3,7.5z M38.3,23.5c0-2.5,2.1-4.6,4.6-4.6c2.5,0,4.6,2.1,4.6,4.6c0,2.5-2.1,4.6-4.6,4.6
		C40.4,28.1,38.3,26.1,38.3,23.5z M48.9,36.9c-2.1,0-3.8-1.7-3.8-3.8c0-2.1,1.7-3.8,3.8-3.8c2.1,0,3.8,1.7,3.8,3.8
		C52.7,35.2,50.9,36.9,48.9,36.9z M50.1,18.2c-2.2,0-4-1.8-4-4c0-2.2,1.8-4,4-4c2.2,0,4,1.8,4,4C54.1,16.4,52.3,18.2,50.1,18.2z
		 M59.6,31.4c-3.6,0-6.6-3-6.6-6.6c0-3.6,3-6.6,6.6-6.6c3.6,0,6.6,3,6.6,6.6C66.1,28.4,63.2,31.4,59.6,31.4z"/>
	<path class="st0" d="M0,0c0.1,28,23.5,52.1,52.3,52.1c28.8,0,52.2-24.1,52.3-52.1H0z M52.3,45.7c-11.6,0-21.1-9.5-21.1-21.1
		c0-11.6,9.5-21.1,21.1-21.1c11.6,0,21.1,9.5,21.1,21.1C73.4,36.3,63.9,45.7,52.3,45.7z"/>
</g>
</svg>
