<?xml version="1.0" encoding="utf-8"?>
<!-- Generator: Adobe Illustrator 19.2.1, SVG Export Plug-In . SVG Version: 6.00 Build 0)  -->
<svg version="1.1" width="115px" height="63px" id="Слой_1" xmlns="http://www.w3.org/2000/svg" xmlns:xlink="http://www.w3.org/1999/xlink" x="0px" y="0px"
	 viewBox="0 0 51.6 28.3" style="enable-background:new 0 0 51.6 28.3;" xml:space="preserve">
<style type="text/css">
	.st0{fill:#FFFFFF;}
</style>
<g id="кеда_3_">
	<g>
		<path class="st0" d="M40.4,28.3c-2.5,0-4.8,0-6.5,0c-0.9,0-1.6,0-2.2,0c-0.8,0-2.6-0.1-2.6-1.8c0-6.2,5-11.2,11.2-11.2
			c5.9,0,11,5.1,11.2,11.2l0,0.8l-0.5,0.5C50.4,28.3,50.4,28.3,40.4,28.3z M32.9,24.7c1.6,0,4.1,0,7.4,0c3.3,0,5.8,0,7.3,0
			c-0.9-3.1-3.7-5.9-7.4-5.9C36.7,18.8,33.7,21.3,32.9,24.7z"/>
	</g>
	<g>
		
			<rect x="24.9" y="10.4" transform="matrix(0.8574 -0.5146 0.5146 0.8574 -2.0928 16.8008)" class="st0" width="8.7" height="3.6"/>
	</g>
	<g>
		<rect x="20.4" y="3.6" transform="matrix(0.8574 -0.5146 0.5146 0.8574 0.7345 13.5288)" class="st0" width="8.7" height="3.6"/>
	</g>
	<path class="st0" d="M49.5,26.9H11.7c0-1,0-0.5,0-0.6c0-4.3-3.3-8-7.4-8.5l6.2-17.2L8.8,0L0.3,23.6c0,0-0.3,1.2-0.3,1.6
		c0,1.7,1.6,3.1,3.3,3.1c0.3,0,46.1-0.1,46.1-0.1V26.9z"/>
	<g>
		<path class="st0" d="M13.8,4.1c-0.2,0-0.5,0-0.7,0c-1.6-0.2-3-1-4-2.3l1.4-1.1c0.7,0.9,1.7,1.5,2.8,1.6c1.1,0.1,2.2-0.2,3.1-0.9
			l1.1,1.4C16.5,3.6,15.2,4.1,13.8,4.1z"/>
	</g>
</g>
</svg>
