<svg id="Слой_1" data-name="Слой 1" xmlns="http://www.w3.org/2000/svg" width="153.22" height="153.22" viewBox="0 0 153.22 153.22">
  <title>step-icon1_big2</title>
  <g id="ілюстрація">
    <circle cx="76.61" cy="76.61" r="76.61" fill="#fee84b"/>
    <g>
      <path d="M112.64,105.87c-5.52,0-10.66,0-14.48-.06-2,0-3.66,0-4.83-.08-1.71,0-5.7-.16-5.7-4.11a25,25,0,0,1,25-25c13.13,0,24.58,11.39,25,24.88l0.05,1.69-1.18,1.22C135.09,105.87,135.09,105.87,112.64,105.87ZM96.07,97.78c3.5,0.05,9.18.09,16.57,0.09s12.85,0,16.36-.09c-2-6.82-8.23-13.16-16.36-13.16A17,17,0,0,0,96.07,97.78Z" fill="#fff"/>
      <rect x="78.25" y="65.95" width="19.44" height="8" transform="translate(-23.45 55.22) rotate(-30.96)" fill="#fff"/>
      <rect x="68.25" y="50.95" width="19.44" height="8" transform="translate(-17.16 47.94) rotate(-30.96)" fill="#fff"/>
      <path d="M132,102.12H48.9a8.1,8.1,0,0,1,0-.89A18.94,18.94,0,0,0,32.37,82.43L46.18,44.2l-3.76-1.39-19,52.46a27,27,0,0,0-.67,3.52,7,7,0,0,0,7,7L132,105.62v-3.5Z" fill="#fff"/>
      <path d="M53.57,51.87a13.57,13.57,0,0,1-1.65-.1,13.37,13.37,0,0,1-9-5.06l3.15-2.47a9.46,9.46,0,0,0,13.28,1.61L61.84,49A13.36,13.36,0,0,1,53.57,51.87Z" fill="#fff"/>
    </g>
  </g>
</svg>
