<?xml version="1.0" encoding="utf-8"?>
<!-- Generator: Adobe Illustrator 19.2.1, SVG Export Plug-In . SVG Version: 6.00 Build 0)  -->
<svg version="1.1" id="Слой_1" width="92px" height="124px" xmlns="http://www.w3.org/2000/svg" xmlns:xlink="http://www.w3.org/1999/xlink" x="0px" y="0px"
	 viewBox="0 0 92.8 124.3" style="enable-background:new 0 0 92.8 124.3;" xml:space="preserve">
<style type="text/css">
	.st0{fill:#FFFFFF;}
</style>
<path class="st0" d="M74.5,35.6L48.5,25L58.6,3.1L51.7,0L0,112.5c2.1,1.3,4.3,2.6,6.6,3.7l5.9-12.9L38.5,114l-4.6,10
	c2.3,0.2,4.7,0.3,7,0.3c0.4,0,0.7,0,1.1,0L92.8,13.8L86,10.6L74.5,35.6z M40,110.5L14.1,99.9l7.1-15.5l25.9,10.6L40,110.5z
	 M48.7,91.7L22.8,81l7.1-15.3l25.9,10.6L48.7,91.7z M57.3,72.9L31.4,62.3l7-15.2l25.9,10.6L57.3,72.9z M65.9,54.3L40,43.6l7-15.2
	l25.9,10.6L65.9,54.3z"/>
</svg>
