<?xml version="1.0" encoding="utf-8"?>
<!-- Generator: Adobe Illustrator 19.2.1, SVG Export Plug-In . SVG Version: 6.00 Build 0)  -->
<svg version="1.1" id="Слой_1" xmlns="http://www.w3.org/2000/svg" xmlns:xlink="http://www.w3.org/1999/xlink" x="0px" y="0px"
	 viewBox="0 0 23.6 23.6" style="enable-background:new 0 0 23.6 23.6;" xml:space="preserve">
<style type="text/css">
	.st0{opacity:0.6;}
	.st1{fill:#FFFFFF;}
</style>
<g class="st0">
	<path class="st1" d="M11.8,23.6c-0.9,0-1.8-0.1-2.7-0.3l0,0C2.8,21.9-1.2,15.5,0.3,9.2C1.8,2.8,8.1-1.2,14.5,0.3
		c3.1,0.7,5.7,2.6,7.4,5.3c1.7,2.7,2.2,5.8,1.5,8.9c-0.7,3.1-2.6,5.7-5.2,7.4C16.2,23,14,23.6,11.8,23.6z M10.3,18.5
		c1.8,0.4,3.6,0.1,5.1-0.9c1.5-1,2.6-2.5,3-4.2c0.4-1.8,0.1-3.6-0.9-5.1c-1-1.5-2.5-2.6-4.3-3C9.7,4.3,6,6.6,5.2,10.3
		C4.3,14,6.6,17.6,10.3,18.5L10.3,18.5z"/>
</g>
</svg>
