<?xml version="1.0" encoding="utf-8"?>
<!-- Generator: Adobe Illustrator 19.0.0, SVG Export Plug-In . SVG Version: 6.00 Build 0)  -->
<svg version="1.1" id="Слой_1" width="250" height="557" xmlns="http://www.w3.org/2000/svg" xmlns:xlink="http://www.w3.org/1999/xlink" x="0px" y="0px"
	 viewBox="0 0 250 557.3" style="enable-background:new 0 0 250 557.3;" xml:space="preserve">
<style type="text/css">
	.st0{opacity:0.1;}
	.st1{fill:#FFFFFF;}
</style>
<g class="st0">
	<path id="XMLID_26_" class="st1" d="M167.9,557.3l-31.4-21.4l21.4-31.4l31.4,21.4L167.9,557.3z M143.4,534.6l23.2,15.7l15.7-23.2
		l-23.2-15.7L143.4,534.6z"/>
</g>
<g class="st0">
	<path id="XMLID_23_" class="st1" d="M36.4,312.1v-55l49.1,28L36.4,312.1z M41.4,265.7v38L75.3,285L41.4,265.7z"/>
</g>
<g class="st0">
	<path id="XMLID_20_" class="st1" d="M14.2,28.5C6.4,28.5,0,22.1,0,14.2S6.4,0,14.2,0s14.2,6.4,14.2,14.2S22.1,28.5,14.2,28.5z
		 M14.2,5C9.1,5,5,9.1,5,14.2s4.1,9.2,9.2,9.2s9.2-4.1,9.2-9.2S19.3,5,14.2,5z"/>
</g>
<g class="st0">
	<path id="XMLID_17_" class="st1" d="M230.2,327c-10.9,0-19.7-8.9-19.7-19.7c0-10.9,8.9-19.8,19.7-19.8c10.9,0,19.8,8.9,19.8,19.8
		C250,318.1,241.1,327,230.2,327z M230.2,292.5c-8.1,0-14.7,6.6-14.7,14.8s6.6,14.7,14.7,14.7s14.8-6.6,14.8-14.7
		S238.3,292.5,230.2,292.5z"/>
</g>
<g class="st0">
	
		<rect id="XMLID_16_" x="120.4" y="149" transform="matrix(0.832 0.5547 -0.5547 0.832 108.3459 -54.8532)" class="st1" width="48.7" height="5"/>
</g>
</svg>
