<?xml version="1.0" encoding="utf-8"?>
<!-- Generator: Adobe Illustrator 19.0.0, SVG Export Plug-In . SVG Version: 6.00 Build 0)  -->
<svg version="1.1" id="Слой_1" width="331" height="516" xmlns="http://www.w3.org/2000/svg" xmlns:xlink="http://www.w3.org/1999/xlink" x="0px" y="0px"
	 viewBox="0 0 331.3 516" style="enable-background:new 0 0 331.3 516;" xml:space="preserve">
<style type="text/css">
	.st0{opacity:0.6;}
	.st1{fill:#FFFFFF;}
</style>
<g class="st0">
	<path id="XMLID_24_" class="st1" d="M55.9,146.3L0,141.9l30.2-46L55.9,146.3z M8.8,137.6l38.6,3l-17.7-34.8L8.8,137.6z"/>
</g>
<g class="st0">
	<path id="XMLID_21_" class="st1" d="M109.7,516c-8.4,0-15.2-6.8-15.2-15.2s6.8-15.2,15.2-15.2s15.2,6.8,15.2,15.2
		S118,516,109.7,516z M109.7,490.6c-5.6,0-10.2,4.6-10.2,10.2S104,511,109.7,511s10.2-4.6,10.2-10.2S115.3,490.6,109.7,490.6z"/>
</g>
<g class="st0">
	
		<rect id="XMLID_20_" x="285.3" y="13.1" transform="matrix(0.8321 0.5547 -0.5547 0.8321 60.6483 -169.1499)" class="st1" width="48.7" height="5"/>
</g>
<g class="st0">
	<path id="XMLID_17_" class="st1" d="M255.8,375.3L235,349.1l18.5-27.9l32.3,9l1.4,33.5L255.8,375.3z M241.2,348.8l16.3,20.5
		l24.6-9.2l-1.1-26.2l-25.3-7L241.2,348.8z"/>
</g>
<g class="st0">
	
		<rect id="XMLID_16_" x="112.4" y="290.3" transform="matrix(0.1586 0.9873 -0.9873 0.1586 392.7283 138.8483)" class="st1" width="5" height="19.2"/>
</g>
</svg>
