<?xml version="1.0" encoding="utf-8"?>
<!-- Generator: Adobe Illustrator 19.0.0, SVG Export Plug-In . SVG Version: 6.00 Build 0)  -->
<svg version="1.1" id="Слой_1" width="260" height="411" xmlns="http://www.w3.org/2000/svg" xmlns:xlink="http://www.w3.org/1999/xlink" x="0px" y="0px"
	 viewBox="0 0 259.2 411.3" style="enable-background:new 0 0 259.2 411.3;" xml:space="preserve">
<style type="text/css">
	.st0{opacity:0.6;}
	.st1{fill:#FFFFFF;}
</style>
<g class="st0">
	<path id="XMLID_29_" class="st1" d="M232.3,181.1l-16.8-26.9l26.9-16.8l16.8,26.9L232.3,181.1z M222.4,155.7l11.5,18.5l18.5-11.5
		l-11.5-18.5L222.4,155.7z"/>
</g>
<g class="st0">
	<path id="XMLID_26_" class="st1" d="M100.5,279.9l-37.9-2.5l2.5-37.9L103,242L100.5,279.9z M67.9,272.7l27.9,1.9l1.9-27.9
		l-27.9-1.9L67.9,272.7z"/>
</g>
<g class="st0">
	<path id="XMLID_23_" class="st1" d="M243,23.6c-0.9,0-1.8-0.1-2.7-0.3l0,0c-6.4-1.5-10.3-7.8-8.9-14.2c1.5-6.4,7.8-10.3,14.2-8.9
		c3.1,0.7,5.7,2.6,7.4,5.3c1.7,2.7,2.2,5.8,1.5,8.9c-0.7,3.1-2.6,5.7-5.2,7.4C247.3,23,245.2,23.6,243,23.6z M241.4,18.5
		c1.8,0.4,3.6,0.1,5.1-0.9c1.5-1,2.6-2.5,3-4.2c0.4-1.8,0.1-3.6-0.9-5.1c-1-1.5-2.5-2.6-4.2-3c-3.7-0.8-7.3,1.4-8.2,5.1
		C235.5,14,237.8,17.6,241.4,18.5L241.4,18.5z"/>
</g>
<g class="st0">
	<path id="XMLID_20_" class="st1" d="M194.1,411.3c-7.9,0-14.2-6.4-14.2-14.2s6.4-14.2,14.2-14.2s14.2,6.4,14.2,14.2
		S202,411.3,194.1,411.3z M194.1,387.8c-5.1,0-9.2,4.1-9.2,9.2s4.1,9.2,9.2,9.2s9.2-4.1,9.2-9.2S199.2,387.8,194.1,387.8z"/>
</g>
<g class="st0">
	
		<rect id="XMLID_19_" x="-2.7" y="321.8" transform="matrix(0.8321 0.5547 -0.5547 0.8321 183.5085 42.4595)" class="st1" width="48.7" height="5"/>
</g>
<g class="st0">
	<path id="XMLID_16_" class="st1" d="M44.1,112.7L14,94.2l8.3-34.3l35.2-2.8L71,89.8L44.1,112.7z M19.7,91.9l23.9,14.7L65,88.3
		L54.2,62.4l-28,2.2L19.7,91.9z"/>
</g>
</svg>
